<?xml version="1.0" encoding="UTF-8" standalone="no"?>
<svg
   version="1.0"
   width="300.000000pt"
   height="300.000000pt"
   viewBox="0 0 300.000000 300.000000"
   preserveAspectRatio="xMidYMid meet"
   id="svg6"
   sodipodi:docname="aUR76Y01.svg"
   inkscape:version="1.3 (0e150ed6c4, 2023-07-21)"
   xmlns:inkscape="http://www.inkscape.org/namespaces/inkscape"
   xmlns:sodipodi="http://sodipodi.sourceforge.net/DTD/sodipodi-0.dtd"
   xmlns:xlink="http://www.w3.org/1999/xlink"
   xmlns="http://www.w3.org/2000/svg"
   xmlns:svg="http://www.w3.org/2000/svg">
  <defs
     id="defs6">
    <linearGradient
       id="linearGradient17"
       inkscape:collect="always">
      <stop
         style="stop-color:#ff8500;stop-opacity:1;"
         offset="0"
         id="stop17" />
      <stop
         style="stop-color:#ff6a7f;stop-opacity:1;"
         offset="0.5"
         id="stop1" />
      <stop
         style="stop-color:#ff4fff;stop-opacity:1;"
         offset="1"
         id="stop18" />
    </linearGradient>
    <linearGradient
       inkscape:collect="always"
       xlink:href="#linearGradient17"
       id="linearGradient18"
       x1="671.18344"
       y1="1501.3085"
       x2="2368.8656"
       y2="1501.3085"
       gradientUnits="userSpaceOnUse" />
  </defs>
  <sodipodi:namedview
     id="namedview6"
     pagecolor="#ffffff"
     bordercolor="#cccccc"
     borderopacity="1"
     inkscape:showpageshadow="0"
     inkscape:pageopacity="1"
     inkscape:pagecheckerboard="0"
     inkscape:deskcolor="#d1d1d1"
     inkscape:document-units="pt"
     inkscape:zoom="2.105"
     inkscape:cx="200"
     inkscape:cy="123.9905"
     inkscape:window-width="1920"
     inkscape:window-height="1019"
     inkscape:window-x="0"
     inkscape:window-y="32"
     inkscape:window-maximized="1"
     inkscape:current-layer="svg6" />
  <metadata
     id="metadata1">&#10;Created by potrace 1.10, written by Peter Selinger 2001-2011&#10;</metadata>
  <g
     transform="matrix(0.1,0,0,-0.1,-9.7021542,270.46279)"
     fill="#000000"
     stroke="none"
     id="g6"
     style="fill:url(#linearGradient18);fill-opacity:1;opacity:1;fill-rule:nonzero">
    <path
       d="m 1387,2350 c -327,-55 -596,-294 -688,-612 -29,-100 -37,-314 -16,-414 43,-201 161,-390 320,-510 73,-56 216,-125 307,-150 100,-28 320,-26 422,3 303,87 520,301 609,599 30,100 37,285 15,395 -71,348 -350,624 -690,684 -94,16 -200,18 -279,5 z m 293,-85 c 327,-76 564,-337 611,-671 10,-74 4,-254 -9,-254 -3,0 -14,8 -24,17 -17,15 -20,15 -28,3 -6,-10 -2,-23 15,-40 23,-24 34,-60 18,-60 -4,0 -17,12 -28,26 -30,38 -54,26 -125,-61 -64,-78 -114,-125 -134,-125 -18,0 -53,40 -110,127 -28,43 -59,79 -68,81 -11,2 -26,-12 -44,-40 -36,-59 -74,-98 -95,-98 -20,0 -63,48 -101,113 -15,26 -32,47 -37,47 -11,0 -20,-11 -134,-165 -72,-96 -166,-195 -186,-195 -20,0 -72,53 -103,105 l -32,54 -33,-30 c -19,-16 -37,-29 -42,-29 -4,0 -29,14 -55,31 -35,24 -54,30 -75,26 -39,-8 -51,20 -15,33 35,14 36,14 85,-20 54,-36 65,-37 96,-4 30,32 51,28 80,-16 56,-86 76,-110 92,-110 24,0 80,61 184,202 47,62 94,121 105,132 35,30 62,15 110,-64 28,-44 50,-70 61,-70 11,0 33,23 54,55 20,30 48,62 61,70 41,27 55,14 150,-137 23,-38 42,-58 55,-58 11,0 39,24 67,58 26,31 65,75 85,97 37,39 38,41 28,84 -5,24 -19,66 -31,94 l -21,49 -18,-33 -17,-34 -11,28 c -6,16 -15,26 -20,23 -5,-3 -12,11 -16,32 -9,52 -97,312 -105,312 -4,0 -13,-26 -20,-57 -7,-32 -25,-93 -41,-136 -16,-43 -29,-87 -29,-98 0,-21 -20,-27 -20,-6 0,6 -9,1 -20,-13 -10,-14 -20,-23 -22,-20 -2,3 -14,28 -27,55 l -24,50 -15,-33 -16,-32 -33,72 c -30,64 -35,70 -47,53 -11,-16 -17,-5 -51,94 -21,62 -42,114 -45,116 -4,3 -37,-83 -73,-191 l -65,-195 -20,27 -19,28 -27,-43 c -34,-53 -43,-76 -51,-125 -8,-50 -15,-40 -56,84 -17,52 -35,98 -38,103 -4,4 -17,-36 -30,-88 -18,-75 -26,-93 -36,-85 -9,8 -16,3 -25,-20 -12,-28 -14,-30 -30,-15 -14,13 -19,13 -22,3 -3,-7 -8,5 -12,27 -12,64 -18,63 -40,-6 -16,-48 -25,-63 -38,-61 -9,1 -19,-2 -23,-8 -11,-17 -23,-11 -29,15 -4,14 -10,25 -14,25 -4,0 -26,-18 -47,-40 -21,-22 -42,-40 -46,-40 -14,0 -32,176 -26,260 25,343 257,623 587,709 93,25 257,27 350,6 z m -150,-522 c 0,-22 26,-67 62,-105 18,-20 44,-50 57,-67 14,-19 30,-31 41,-29 10,2 32,-9 48,-25 28,-27 29,-27 65,-12 41,17 51,32 87,128 14,37 30,69 35,70 6,1 26,-47 46,-107 37,-113 68,-156 110,-156 21,0 39,-35 39,-76 0,-25 -114,-170 -132,-168 -4,1 -12,2 -16,3 -4,0 -29,34 -56,74 -26,41 -61,81 -77,91 -51,30 -102,5 -154,-76 -9,-16 -21,-28 -25,-28 -5,0 -20,20 -34,44 -50,86 -109,108 -163,62 -16,-13 -62,-70 -103,-125 -66,-91 -77,-101 -99,-96 -26,7 -81,-11 -81,-26 0,-12 17,-11 25,1 9,15 51,12 65,-5 15,-18 -1,-20 -18,-3 -10,10 -18,9 -40,-4 l -28,-17 -48,49 c -53,55 -75,60 -121,30 l -29,-19 -42,24 c -59,34 -97,33 -134,-6 l -30,-32 -20,46 c -11,25 -23,60 -26,79 -6,27 -4,31 7,21 19,-19 47,-16 80,7 22,16 33,19 48,11 27,-15 75,-3 101,24 18,19 29,22 61,18 38,-5 43,-3 89,45 l 49,51 23,-41 c 33,-59 52,-68 77,-37 11,13 23,37 27,54 11,49 33,75 65,75 33,0 52,24 74,95 48,153 67,196 81,184 8,-6 14,-18 14,-26 z m 55,-559 c 25,-32 33,-50 16,-40 -5,4 -21,2 -34,-3 -14,-6 -53,-7 -87,-3 l -62,7 47,64 48,65 23,-30 c 13,-16 35,-43 49,-60 z m 644,57 c 17,-17 20,-17 35,-3 25,26 31,5 13,-46 -85,-229 -301,-422 -553,-494 -112,-32 -294,-32 -414,1 -125,33 -248,102 -343,190 -72,68 -144,159 -160,204 -6,15 -4,16 13,7 10,-5 25,-8 32,-5 7,3 37,-9 67,-26 l 53,-31 -23,-24 c -12,-13 -17,-24 -11,-24 6,0 13,4 16,9 4,5 41,8 84,6 96,-4 92,-3 92,-15 0,-7 -6,-7 -20,0 -14,8 -26,8 -40,0 -15,-8 -30,-8 -54,1 -28,10 -37,9 -56,-4 -23,-16 -23,-16 26,-17 99,-1 134,-5 134,-15 0,-5 -16,-13 -37,-16 -64,-10 -23,-14 236,-21 97,-2 135,0 138,9 3,8 -24,11 -96,11 -56,-1 -104,2 -109,6 -16,17 28,32 84,29 33,-2 75,-3 94,-2 19,0 94,0 165,-1 72,0 149,-1 172,0 23,0 45,-4 48,-10 4,-6 -7,-10 -27,-9 -18,1 -61,-3 -95,-9 -34,-6 -71,-8 -82,-5 -30,8 -96,-6 -84,-18 6,-6 19,-6 36,0 19,7 34,7 51,0 16,-8 30,-8 42,-1 12,7 25,6 41,-1 18,-8 27,-6 43,8 17,15 24,16 47,6 18,-8 29,-9 37,-1 13,13 49,13 63,-1 14,-14 101,-20 109,-8 3,5 18,9 35,9 16,0 29,5 29,10 0,7 -25,9 -75,4 -47,-4 -79,-3 -87,4 -7,5 -22,12 -33,15 -12,3 -7,5 15,6 19,1 41,5 49,10 12,8 44,3 114,-19 23,-7 32,-4 55,17 21,19 23,23 7,17 -29,-11 -104,-5 -138,10 -11,5 -28,4 -42,-4 -13,-7 -34,-10 -46,-7 -12,3 -31,2 -41,-4 -12,-6 -25,-6 -38,1 -14,8 -26,8 -41,0 -16,-9 -26,-8 -45,5 -20,13 -28,14 -40,5 -8,-8 -27,-10 -46,-6 -18,4 -42,6 -53,6 -11,-1 -40,-1 -64,-1 -24,0 -53,-5 -64,-10 -14,-8 -26,-8 -43,2 -19,10 -29,10 -47,0 -19,-10 -28,-9 -52,4 l -30,17 33,-6 c 19,-3 42,-1 52,4 13,7 27,6 44,-1 19,-9 32,-9 55,0 21,9 35,10 50,2 14,-8 27,-8 45,1 20,8 32,8 52,-1 20,-9 34,-9 59,1 23,8 38,8 47,1 18,-13 188,-10 214,4 16,9 26,9 46,-1 15,-8 31,-10 39,-6 7,5 21,3 31,-4 14,-10 26,-10 53,-2 19,6 35,13 35,16 0,9 -141,14 -315,12 -130,-2 -155,-2 -185,-1 -47,2 -75,2 -178,-1 -56,-2 -105,0 -109,3 -3,4 2,15 11,26 16,18 39,22 114,22 17,-1 43,-1 57,-1 44,1 94,0 123,0 15,-1 70,-1 122,0 52,1 127,-1 167,-4 43,-4 74,-2 78,4 4,6 35,7 78,4 57,-5 76,-3 92,10 19,15 19,15 1,16 -11,0 -34,-5 -51,-11 -26,-10 -36,-8 -65,10 -39,23 -33,27 16,9 27,-9 38,-9 58,1 14,8 32,11 40,8 9,-4 16,-1 16,5 0,7 -17,9 -50,5 -61,-7 -65,5 -17,60 17,21 37,43 42,50 14,18 32,16 54,-6 z m -394,-28 c 33,-49 32,-58 -10,-70 -31,-10 -76,-4 -104,14 -6,4 70,93 79,93 5,0 21,-17 35,-37 z m -335,-95 c 15,-10 26,-10 52,0 25,9 39,9 65,0 26,-9 40,-9 66,0 42,15 70,15 85,0 9,-9 21,-8 51,2 29,9 44,10 53,2 7,-5 24,-12 38,-14 22,-4 23,-5 6,-13 -12,-5 -28,-2 -45,8 -23,13 -29,13 -54,1 -24,-13 -31,-13 -57,2 -28,17 -31,17 -64,-1 -31,-17 -39,-17 -75,-5 -34,11 -45,11 -66,0 -19,-10 -30,-10 -54,0 -25,10 -37,10 -60,0 -22,-9 -34,-9 -51,0 -12,6 -19,14 -17,17 3,2 14,0 25,-6 14,-8 24,-7 38,4 24,18 39,18 64,3 z m -432,-76 c 5,-15 -23,-26 -45,-17 -17,6 -17,7 2,21 21,16 37,14 43,-4 z"
       id="path1"
       style="fill:url(#linearGradient18);fill-opacity:1;fill-rule:nonzero" />
    <path
       d="m 1751,2031 c -19,-12 -6,-43 16,-39 10,2 18,12 18,22 0,22 -14,29 -34,17 z"
       id="path2"
       style="fill:url(#linearGradient18);fill-opacity:1;fill-rule:nonzero" />
    <path
       d="m 1212,2018 c -16,-16 -15,-23 4,-42 21,-22 56,-3 52,27 -3,25 -37,34 -56,15 z"
       id="path3"
       style="fill:url(#linearGradient18);fill-opacity:1;fill-rule:nonzero" />
    <path
       d="m 1034,1835 c -4,-9 -2,-21 4,-27 16,-16 47,-5 47,17 0,26 -42,34 -51,10 z"
       id="path4"
       style="fill:url(#linearGradient18);fill-opacity:1;fill-rule:nonzero" />
    <path
       d="m 1840,920 c -8,-6 -31,-8 -51,-4 -22,3 -40,1 -43,-5 -5,-7 -39,-9 -91,-7 -69,4 -156,-6 -135,-14 17,-7 216,-8 224,-1 11,8 91,7 196,-3 46,-5 59,-2 80,15 l 25,21 -25,-7 c -51,-13 -129,-13 -141,1 -14,17 -19,17 -39,4 z"
       id="path5"
       style="fill:url(#linearGradient18);fill-opacity:1;fill-rule:nonzero" />
    <path
       d="m 1060,899 c 17,-14 32,-19 50,-14 14,3 30,5 35,5 6,0 75,-3 153,-5 139,-5 182,2 182,26 0,6 -10,3 -22,-5 -14,-10 -27,-12 -38,-6 -10,5 -39,6 -67,1 -28,-4 -61,-4 -73,1 -13,5 -37,6 -53,2 -17,-3 -39,-1 -53,7 -20,10 -29,10 -49,-1 -19,-10 -30,-11 -50,-2 -38,17 -43,14 -15,-9 z"
       id="path6"
       style="fill:url(#linearGradient18);fill-opacity:1;fill-rule:nonzero" />
  </g>
</svg>
