<?xml version="1.0" encoding="UTF-8" standalone="no"?>
<svg
   version="1.0"
   width="300.000000pt"
   height="300.000000pt"
   viewBox="0 0 300.000000 300.000000"
   preserveAspectRatio="xMidYMid meet"
   id="svg23"
   sodipodi:docname="ttHWrI01.svg"
   inkscape:version="1.3 (0e150ed6c4, 2023-07-21)"
   xmlns:inkscape="http://www.inkscape.org/namespaces/inkscape"
   xmlns:sodipodi="http://sodipodi.sourceforge.net/DTD/sodipodi-0.dtd"
   xmlns:xlink="http://www.w3.org/1999/xlink"
   xmlns="http://www.w3.org/2000/svg"
   xmlns:svg="http://www.w3.org/2000/svg">
  <defs
     id="defs23">
    <linearGradient
       id="linearGradient26"
       inkscape:collect="always">
      <stop
         style="stop-color:#00a6ff;stop-opacity:1;"
         offset="0.28983045"
         id="stop26" />
      <stop
         style="stop-color:#fe3a74;stop-opacity:1;"
         offset="0.70983768"
         id="stop2" />
      <stop
         style="stop-color:#feab00;stop-opacity:1;"
         offset="1"
         id="stop27" />
    </linearGradient>
    <radialGradient
       inkscape:collect="always"
       xlink:href="#linearGradient26"
       id="radialGradient2"
       cx="1497.187"
       cy="1469.5901"
       fx="1497.187"
       fy="1469.5901"
       r="941.06299"
       gradientTransform="matrix(1,0,0,1.1055688,0,-155.14291)"
       gradientUnits="userSpaceOnUse" />
  </defs>
  <sodipodi:namedview
     id="namedview23"
     pagecolor="#ffffff"
     bordercolor="#cccccc"
     borderopacity="1"
     inkscape:showpageshadow="0"
     inkscape:pageopacity="1"
     inkscape:pagecheckerboard="0"
     inkscape:deskcolor="#d1d1d1"
     inkscape:document-units="pt"
     inkscape:zoom="2.105"
     inkscape:cx="207.60095"
     inkscape:cy="200"
     inkscape:window-width="1920"
     inkscape:window-height="1019"
     inkscape:window-x="0"
     inkscape:window-y="32"
     inkscape:window-maximized="1"
     inkscape:current-layer="svg23" />
  <metadata
     id="metadata1">&#10;Created by potrace 1.10, written by Peter Selinger 2001-2011&#10;</metadata>
  <g
     transform="matrix(0.07666425,0.06420742,0.06420742,-0.07666425,-58.90285,169.34056)"
     fill="#000000"
     stroke="none"
     id="g23"
     style="fill:url(#radialGradient2)">
    <path
       d="m 1438,2473 c -63,-66 -123,-209 -154,-367 -9,-45 -19,-162 -23,-261 l -7,-180 -127,-199 c -76,-120 -134,-221 -143,-251 -11,-40 -14,-99 -12,-266 4,-260 0,-256 125,-142 47,43 109,100 139,126 l 53,48 -6,-35 c -4,-29 -2,-35 17,-41 17,-5 20,-12 15,-28 -22,-75 -28,-153 -17,-221 15,-95 27,-126 50,-126 14,0 27,17 45,57 14,32 28,51 30,43 2,-8 11,-44 20,-80 40,-167 70,-162 116,22 l 16,69 28,-56 c 31,-63 62,-75 73,-27 3,15 10,43 15,62 14,54 11,171 -6,226 -8,27 -15,50 -15,52 0,1 6,2 14,2 28,0 41,29 28,63 -11,30 -9,29 41,-19 229,-219 260,-241 273,-190 3,14 4,118 2,233 -4,249 4,228 -172,503 l -116,182 v 109 c 0,233 -39,432 -115,586 -47,94 -90,143 -129,143 -12,0 -38,-16 -58,-37 z m 101,-106 c 16,-51 32,-113 36,-139 8,-55 25,-64 25,-15 0,36 -32,142 -57,191 -8,15 -10,25 -4,22 19,-12 61,-92 91,-175 l 30,-81 h -160 c -88,0 -160,2 -160,5 0,16 64,174 84,209 31,52 65,88 76,81 5,-3 23,-47 39,-98 z m 140,-314 c 33,-209 23,-616 -21,-863 -22,-125 -23,-135 -13,-165 6,-19 2,-20 -144,-20 -149,0 -162,3 -142,33 4,8 2,38 -5,70 -38,162 -49,285 -49,582 0,205 4,317 13,368 l 14,72 h 167 167 z m -528,-823 c -96,-92 -121,-122 -126,-150 -9,-54 -2,-233 11,-237 5,-2 60,43 120,99 165,154 167,155 163,137 -2,-9 -71,-78 -154,-153 l -150,-137 -3,182 c -2,132 1,195 11,229 8,26 63,125 123,219 l 109,173 8,-124 8,-123 z m 697,195 c 56,-90 110,-183 119,-207 13,-33 18,-88 21,-235 2,-106 1,-193 -3,-193 -13,0 -300,272 -304,288 -3,17 116,-88 209,-182 30,-31 60,-56 67,-56 10,0 13,32 13,136 v 136 l -38,37 c -20,20 -76,72 -123,117 l -85,81 8,89 c 5,49 8,104 6,122 -2,17 -2,32 2,32 3,-1 51,-75 108,-165 z m -568,-124 c 0,-4 -47,-54 -105,-109 l -105,-101 v -99 c 0,-79 -3,-102 -16,-113 -14,-12 -16,-3 -12,99 l 3,112 110,110 c 104,104 125,121 125,101 z m 600,-135 65,-66 5,-115 c 3,-75 1,-114 -5,-112 -6,2 -11,51 -13,110 l -3,106 -90,88 c -50,48 -97,92 -105,96 -8,4 -14,15 -14,23 0,19 65,-34 160,-130 z m -587,36 c 4,-32 8,-65 11,-73 3,-8 -38,-53 -102,-112 l -107,-97 -3,77 -3,77 93,93 c 51,51 95,93 99,93 3,0 9,-26 12,-58 z m 575,-86 c 42,-45 42,-46 42,-122 0,-41 -4,-74 -9,-72 -5,2 -54,46 -109,99 l -101,96 11,71 11,71 57,-49 c 31,-27 75,-69 98,-94 z M 1673,955 c 5,-12 -21,-15 -169,-17 -97,-2 -178,0 -181,5 -13,22 20,27 177,27 138,0 169,-3 173,-15 z M 1419,848 c -4,-24 -8,-59 -9,-78 0,-19 -12,-65 -27,-103 -24,-62 -28,-66 -36,-45 -11,31 -4,206 11,241 9,20 18,27 40,27 29,0 29,0 21,-42 z m 115,5 c 14,-88 -5,-281 -33,-331 -14,-24 -41,135 -41,237 0,119 4,131 40,131 24,0 28,-5 34,-37 z m 105,0 c 5,-21 13,-50 17,-66 8,-33 -4,-177 -15,-177 -17,0 -59,138 -64,208 l -4,72 h 28 c 24,0 30,-5 38,-37 z"
       id="path1"
       style="fill:url(#radialGradient2)" />
    <path
       d="m 1429,2037 c -89,-59 -86,-172 4,-227 89,-54 200,13 200,122 0,100 -120,162 -204,105 z m 79,-56 c 15,-47 15,-66 1,-113 -12,-46 -30,-48 -70,-9 -21,22 -29,39 -29,66 0,27 8,44 29,66 39,39 56,37 69,-10 z m 62,1 c 28,-35 26,-87 -5,-117 -13,-14 -31,-25 -38,-25 -12,0 -11,7 4,37 24,46 24,50 -1,98 -11,22 -20,40 -20,41 0,11 45,-14 60,-34 z"
       id="path2"
       style="fill:url(#radialGradient2)" />
    <path
       d="m 1515,1754 c 11,-9 34,-22 52,-30 22,-10 33,-22 36,-41 4,-26 4,-26 6,4 1,36 -21,57 -80,73 -32,9 -33,8 -14,-6 z"
       id="path3"
       style="fill:url(#radialGradient2)" />
    <path
       d="m 1352,1536 c 4,-194 23,-197 23,-4 0,106 -3,142 -13,146 -10,3 -12,-27 -10,-142 z"
       id="path4"
       style="fill:url(#radialGradient2)" />
    <path
       d="m 1625,1669 c -10,-26 -1,-279 10,-279 14,0 19,270 6,283 -7,7 -12,5 -16,-4 z"
       id="path5"
       style="fill:url(#radialGradient2)" />
    <path
       d="m 1592,1500 c -2,-30 -7,-86 -12,-125 -22,-164 -23,-178 -12,-172 18,12 34,138 30,247 -2,58 -5,80 -6,50 z"
       id="path6"
       style="fill:url(#radialGradient2)" />
    <path
       d="m 1485,1228 c -46,-131 -63,-184 -59,-190 7,-11 142,-10 148,1 8,13 -58,194 -72,199 -7,2 -14,-2 -17,-10 z m 38,-101 c 9,-30 17,-57 17,-60 0,-4 -18,-7 -41,-7 -35,0 -40,3 -34,18 3,9 11,36 18,60 6,23 14,42 17,42 4,0 14,-24 23,-53 z"
       id="path7"
       style="fill:url(#radialGradient2)" />
    <path
       d="m 1778,1437 c -5,-10 -8,-40 -8,-65 1,-37 3,-43 11,-29 5,9 9,39 7,65 -2,32 -5,41 -10,29 z"
       id="path8"
       style="fill:url(#radialGradient2)" />
    <path
       d="m 1751,1156 c -1,-25 42,-116 54,-116 2,0 -6,24 -17,53 -39,100 -37,95 -37,63 z"
       id="path9"
       style="fill:url(#radialGradient2)" />
    <path
       d="m 1503,770 c 0,-41 2,-58 4,-37 2,20 2,54 0,75 -2,20 -4,3 -4,-38 z"
       id="path10"
       style="fill:url(#radialGradient2)" />
    <path
       d="m 1066,2420 c -3,-8 -6,-24 -8,-35 -2,-13 -15,-24 -36,-30 -40,-12 -41,-20 0,-31 25,-7 34,-17 41,-43 9,-36 23,-32 29,8 2,17 13,28 38,36 l 35,12 -37,16 c -24,10 -38,23 -38,34 0,10 -4,25 -10,33 -8,13 -10,13 -14,0 z"
       id="path11"
       style="fill:url(#radialGradient2)" />
    <path
       d="m 1914,2401 c -5,-26 -15,-37 -43,-49 l -36,-15 35,-12 c 26,-9 36,-19 42,-44 10,-37 23,-34 31,8 5,22 13,31 37,36 38,8 38,21 0,29 -17,3 -33,14 -36,23 -18,56 -22,59 -30,24 z"
       id="path12"
       style="fill:url(#radialGradient2)" />
    <path
       d="m 1197,2168 c -33,-79 -50,-208 -29,-215 8,-3 12,8 13,34 0,33 18,110 44,191 12,35 -13,27 -28,-10 z"
       id="path13"
       style="fill:url(#radialGradient2)" />
    <path
       d="m 1765,2183 c 20,-47 43,-133 50,-180 10,-77 29,-68 22,10 -8,81 -44,187 -64,187 -11,0 -13,-5 -8,-17 z"
       id="path14"
       style="fill:url(#radialGradient2)" />
    <path
       d="m 696,2127 c -3,-12 -6,-32 -6,-45 0,-36 -50,-80 -96,-84 -51,-4 -50,-22 0,-26 48,-4 96,-50 96,-92 0,-16 3,-35 6,-44 11,-29 24,-16 24,24 0,56 52,110 105,110 49,0 41,24 -8,28 -53,5 -97,51 -97,102 0,44 -15,61 -24,27 z m 32,-119 c 27,-27 -5,-73 -38,-53 -20,12 -4,65 20,65 3,0 11,-5 18,-12 z"
       id="path15"
       style="fill:url(#radialGradient2)" />
    <path
       d="m 2276,2134 c -3,-9 -6,-29 -6,-46 0,-42 -46,-86 -96,-90 -50,-4 -51,-22 -2,-26 53,-4 96,-49 100,-104 5,-62 28,-62 28,0 0,41 4,52 19,57 11,3 23,15 26,26 5,15 16,19 52,19 55,0 55,23 0,28 -53,5 -97,51 -97,102 0,41 -14,61 -24,34 z m 38,-136 c 7,-12 6,-21 -3,-32 -18,-22 -38,-20 -51,3 -7,15 -6,24 6,36 19,18 33,16 48,-7 z"
       id="path16"
       style="fill:url(#radialGradient2)" />
    <path
       d="m 1115,1873 c -4,-11 -17,-24 -28,-28 -20,-6 -20,-8 -4,-12 10,-3 23,-17 29,-31 10,-26 10,-27 18,-5 5,12 17,26 27,31 17,10 17,11 0,18 -10,4 -23,16 -27,28 l -9,21 z"
       id="path17"
       style="fill:url(#radialGradient2)" />
    <path
       d="m 1955,1723 c -4,-12 -17,-25 -28,-29 l -22,-7 23,-8 c 12,-5 22,-15 22,-24 0,-8 5,-15 10,-15 6,0 10,6 10,13 0,8 10,18 23,24 l 22,10 -22,7 c -12,4 -24,17 -26,29 l -4,22 z"
       id="path18"
       style="fill:url(#radialGradient2)" />
    <path
       d="m 1031,1673 c -1,-7 -10,-21 -22,-31 -17,-17 -18,-20 -5,-25 9,-4 16,-13 16,-22 0,-8 5,-15 10,-15 6,0 10,7 10,15 0,9 10,20 23,24 20,8 21,10 4,16 -10,4 -23,17 -27,29 -5,12 -9,16 -9,9 z"
       id="path19"
       style="fill:url(#radialGradient2)" />
    <path
       id="path20"
       d="m 581.06257,1369.0246 c 0.65717,-0.1738 1.29254,-0.3501 1.98185,-0.5184 0.0313,0.2262 0.0899,0.4682 0.12395,0.6961 -0.70082,-0.063 -1.40357,-0.1193 -2.1058,-0.1777 z"
       style="fill:url(#radialGradient2)" />
    <path
       d="m 2338,1443 c -2,-20 -12,-32 -35,-42 -41,-18 -42,-27 -3,-34 22,-5 31,-14 36,-34 11,-46 17,-49 29,-13 11,33 21,42 60,55 17,6 15,9 -15,19 -26,10 -37,21 -44,44 -11,39 -24,41 -28,5 z"
       id="path21"
       style="fill:url(#radialGradient2)" />
    <path
       d="m 2205,1027 c -6,-31 -12,-39 -36,-44 -42,-8 -45,-21 -7,-31 25,-6 34,-15 41,-41 8,-34 22,-32 29,4 2,11 19,27 38,37 37,17 36,18 -18,34 -7,2 -15,12 -18,21 -18,57 -21,59 -29,20 z"
       id="path22"
       style="fill:url(#radialGradient2)" />
    <path
       d="m 762,768 c -6,-25 -15,-34 -41,-41 -34,-8 -32,-22 4,-29 11,-1 26,-18 34,-36 18,-40 27,-41 35,-2 3,17 12,33 21,35 51,16 51,16 15,33 -26,13 -36,25 -38,45 -4,37 -20,34 -30,-5 z"
       id="path23"
       style="fill:url(#radialGradient2)" />
  </g>
</svg>
