<?xml version="1.0" encoding="UTF-8" standalone="no"?>
<svg
   version="1.0"
   width="300.000000pt"
   height="300.000000pt"
   viewBox="0 0 300.000000 300.000000"
   preserveAspectRatio="xMidYMid meet"
   id="svg4"
   sodipodi:docname="hooC6901.svg"
   inkscape:version="1.3 (0e150ed6c4, 2023-07-21)"
   xmlns:inkscape="http://www.inkscape.org/namespaces/inkscape"
   xmlns:sodipodi="http://sodipodi.sourceforge.net/DTD/sodipodi-0.dtd"
   xmlns:xlink="http://www.w3.org/1999/xlink"
   xmlns="http://www.w3.org/2000/svg"
   xmlns:svg="http://www.w3.org/2000/svg">
  <defs
     id="defs4">
    <linearGradient
       id="linearGradient6"
       inkscape:collect="always">
      <stop
         style="stop-color:#ff00ff;stop-opacity:1;"
         offset="0"
         id="stop4" />
      <stop
         style="stop-color:#7f4dff;stop-opacity:0.91764706;"
         offset="0.42109168"
         id="stop6" />
      <stop
         style="stop-color:#00bcff;stop-opacity:0.8411293;"
         offset="1"
         id="stop5" />
    </linearGradient>
    <linearGradient
       id="linearGradient2"
       inkscape:collect="always">
      <stop
         style="stop-color:#ffff00;stop-opacity:1;"
         offset="0"
         id="stop1" />
      <stop
         style="stop-color:#7f027f;stop-opacity:0.8411293;"
         offset="0.5148043"
         id="stop3" />
      <stop
         style="stop-color:#007eff;stop-opacity:1;"
         offset="1"
         id="stop2" />
    </linearGradient>
    <linearGradient
       inkscape:collect="always"
       xlink:href="#linearGradient2"
       id="linearGradient5"
       x1="831.08295"
       y1="1499.8274"
       x2="2240"
       y2="1499.8274"
       gradientUnits="userSpaceOnUse" />
    <linearGradient
       inkscape:collect="always"
       xlink:href="#linearGradient6"
       id="linearGradient1"
       gradientUnits="userSpaceOnUse"
       x1="831.08295"
       y1="1499.8274"
       x2="2240"
       y2="1499.8274" />
  </defs>
  <sodipodi:namedview
     id="namedview4"
     pagecolor="#ffffff"
     bordercolor="#cccccc"
     borderopacity="1"
     inkscape:showpageshadow="0"
     inkscape:pageopacity="1"
     inkscape:pagecheckerboard="0"
     inkscape:deskcolor="#d1d1d1"
     inkscape:document-units="pt"
     inkscape:zoom="2.105"
     inkscape:cx="200"
     inkscape:cy="198.57482"
     inkscape:window-width="1920"
     inkscape:window-height="1019"
     inkscape:window-x="0"
     inkscape:window-y="32"
     inkscape:window-maximized="1"
     inkscape:current-layer="g4" />
  <metadata
     id="metadata1">&#10;Created by potrace 1.10, written by Peter Selinger 2001-2011&#10;</metadata>
  <g
     transform="matrix(0.09693864,-0.02455401,-0.02455401,-0.09693864,42.65031,333.78485)"
     fill="#000000"
     stroke="none"
     id="g4"
     style="fill:url(#linearGradient5)">
    <g
       id="g1"
       style="fill:url(#linearGradient1)">
      <path
         d="m 1177,2373 c -4,-3 -7,-32 -7,-64 0,-55 -1,-58 -27,-61 l -28,-3 -3,-93 -3,-93 -77,-77 C 897,1846 840,1719 832,1535 c -5,-125 10,-206 56,-307 38,-82 111,-178 172,-225 l 49,-38 3,-100 3,-100 27,-3 c 26,-3 27,-6 30,-70 l 3,-67 309,-3 c 219,-2 313,1 322,9 9,7 14,33 14,70 0,50 3,59 18,59 34,0 42,21 42,113 v 88 l 62,57 c 34,31 83,90 110,131 47,72 98,206 98,258 0,24 2,25 45,21 l 45,-3 v 67 68 h -45 c -44,0 -45,0 -45,34 0,50 -37,162 -78,236 -20,38 -68,98 -114,144 l -78,78 v 87 c 0,89 -8,111 -42,111 -14,0 -18,11 -20,63 l -3,62 -316,3 c -173,1 -318,-1 -322,-5 z m 201,-40 c -15,-2 -42,-2 -60,0 -18,2 -6,4 27,4 33,0 48,-2 33,-4 z m 170,0 c -27,-2 -69,-2 -95,0 -27,2 -5,3 47,3 52,0 74,-1 48,-3 z m 170,0 c -21,-2 -57,-2 -80,0 -24,2 -7,4 37,4 44,0 63,-2 43,-4 z m 77,-43 c 0,-13 -41,-15 -302,-18 -249,-2 -303,0 -303,11 0,8 3,17 7,20 4,4 140,6 302,5 255,-3 296,-5 296,-18 z m 1,-55 c 17,-13 8,-15 -91,-17 -273,-5 -515,0 -515,11 0,4 3,11 7,14 3,4 135,7 293,7 236,0 290,-3 306,-15 z m 22,-102 c 3,-41 1,-45 -15,-38 -10,5 -56,22 -103,38 -76,27 -98,30 -200,30 -121,0 -209,-17 -282,-54 -20,-10 -40,-19 -43,-19 -3,0 -5,20 -5,45 v 44 l 113,4 c 61,2 207,2 322,0 l 210,-4 z m -183,-38 c 175,-45 328,-168 403,-325 47,-100 62,-163 62,-268 0,-273 -194,-518 -465,-587 -77,-19 -211,-19 -288,1 -310,80 -508,381 -454,689 43,242 220,432 457,490 75,18 213,18 285,0 z m 559,-581 c 9,-8 16,-19 16,-23 0,-15 -25,-31 -47,-31 -20,0 -23,5 -23,35 0,28 4,35 19,35 11,0 27,-7 35,-16 z M 1218,901 c 75,-38 161,-55 282,-55 102,0 125,4 200,31 47,16 93,33 103,37 15,7 17,2 17,-40 v -49 h -325 -325 v 48 c 0,26 2,47 5,47 3,0 23,-9 43,-19 z m 485,-109 c 66,-1 106,-6 102,-12 -8,-12 -602,-14 -610,-1 -9,16 154,20 508,13 z m 92,-62 c 0,-13 -41,-15 -294,-18 -172,-1 -299,2 -304,7 -28,28 10,31 301,29 256,-3 297,-5 297,-18 z m -25,-46 c 8,-9 7,-15 -2,-20 -14,-9 -537,-6 -552,3 -5,3 -1,12 8,19 25,18 531,17 546,-2 z"
         id="path1"
         style="fill:url(#linearGradient1)" />
      <path
         d="m 1370,2064 c -206,-44 -381,-213 -435,-420 -19,-75 -19,-203 0,-278 76,-293 376,-483 665,-422 122,26 211,75 299,164 225,227 228,557 7,790 -56,59 -86,81 -160,117 -130,64 -241,78 -376,49 z m 110,-104 c 0,-64 3,-80 15,-80 12,0 15,16 15,80 0,57 4,80 13,80 30,-1 146,-30 184,-47 l 42,-18 -39,-65 c -44,-73 -46,-80 -26,-80 8,0 31,29 51,65 l 36,65 46,-32 c 39,-29 106,-99 126,-135 5,-7 -17,-25 -58,-48 -36,-20 -65,-40 -65,-45 0,-19 32,-10 87,26 30,19 57,33 60,31 10,-11 52,-146 58,-189 l 7,-48 h -76 c -61,0 -76,-3 -76,-15 0,-12 15,-15 76,-15 h 76 l -7,-52 c -4,-29 -19,-84 -32,-121 -24,-65 -26,-67 -47,-54 -93,60 -126,72 -126,46 0,-4 29,-24 65,-44 l 65,-36 -32,-46 c -28,-39 -133,-133 -148,-133 -3,0 -15,22 -28,48 -32,64 -49,85 -61,77 -7,-4 1,-29 25,-70 19,-36 33,-69 30,-73 -7,-12 -128,-49 -183,-56 l -42,-6 -3,77 c -4,101 -22,101 -26,0 l -3,-78 -47,7 c -51,7 -159,39 -180,52 -10,7 -5,22 22,68 20,32 36,65 36,72 0,27 -20,9 -56,-53 -21,-36 -42,-65 -46,-65 -13,0 -168,155 -168,168 0,6 27,27 60,47 33,20 60,40 60,44 0,21 -17,16 -76,-20 l -64,-39 -16,38 c -21,51 -44,140 -44,174 v 28 h 75 c 60,0 75,3 75,15 0,12 -15,15 -76,15 h -77 l 7,55 c 6,50 40,160 55,177 3,4 31,-8 61,-27 59,-37 80,-43 80,-22 0,6 -27,27 -60,45 -33,18 -60,38 -60,44 0,14 156,168 170,168 5,0 21,-21 34,-47 33,-65 51,-87 64,-79 7,4 -4,30 -29,74 l -40,67 43,19 c 44,20 135,44 176,45 21,1 22,-2 22,-79 z"
         id="path2"
         style="fill:url(#linearGradient1)" />
      <path
         d="m 1420,1780 c 0,-10 65,-80 74,-80 8,0 76,72 76,81 0,16 -13,10 -45,-21 l -31,-30 -29,30 c -30,31 -45,38 -45,20 z"
         id="path3"
         style="fill:url(#linearGradient1)" />
      <path
         d="m 1678,1670 c -60,-44 -108,-76 -108,-72 0,5 5,13 12,20 9,9 9,12 1,12 -7,0 -24,-18 -40,-40 -15,-22 -36,-40 -47,-40 -10,0 -65,32 -123,71 -84,57 -107,68 -119,58 -8,-6 -14,-15 -14,-19 0,-4 47,-38 104,-76 58,-38 107,-78 110,-88 3,-13 -36,-75 -130,-203 -74,-102 -133,-190 -131,-196 3,-11 94,107 227,295 30,42 60,75 66,73 16,-5 54,23 54,40 0,7 58,54 128,103 137,97 157,115 147,132 -11,18 -29,10 -137,-70 z"
         id="path4"
         style="fill:url(#linearGradient1)" />
    </g>
  </g>
</svg>
