<?xml version="1.0" encoding="UTF-8" standalone="no"?>
<svg
   version="1.0"
   width="192.000000pt"
   height="165.000000pt"
   viewBox="0 0 192.000000 165.000000"
   preserveAspectRatio="xMidYMid meet"
   id="svg39"
   sodipodi:docname="ai.svg"
   inkscape:version="1.3 (0e150ed6c4, 2023-07-21)"
   xmlns:inkscape="http://www.inkscape.org/namespaces/inkscape"
   xmlns:sodipodi="http://sodipodi.sourceforge.net/DTD/sodipodi-0.dtd"
   xmlns:xlink="http://www.w3.org/1999/xlink"
   xmlns="http://www.w3.org/2000/svg"
   xmlns:svg="http://www.w3.org/2000/svg">
  <defs
     id="defs39">
    <linearGradient
       id="linearGradient39"
       inkscape:collect="always">
      <stop
         style="stop-color:#00ff00;stop-opacity:1;"
         offset="0"
         id="stop39" />
      <stop
         style="stop-color:#00ff8d;stop-opacity:1;"
         offset="0.5"
         id="stop42" />
      <stop
         style="stop-color:#1bffff;stop-opacity:1;"
         offset="1"
         id="stop41" />
    </linearGradient>
    <linearGradient
       inkscape:collect="always"
       xlink:href="#linearGradient39"
       id="linearGradient40"
       x1="140"
       y1="830.10532"
       x2="1925"
       y2="830.10532"
       gradientUnits="userSpaceOnUse" />
  </defs>
  <sodipodi:namedview
     id="namedview39"
     pagecolor="#ffffff"
     bordercolor="#cccccc"
     borderopacity="1"
     inkscape:showpageshadow="0"
     inkscape:pageopacity="1"
     inkscape:pagecheckerboard="0"
     inkscape:deskcolor="#d1d1d1"
     inkscape:document-units="pt"
     inkscape:zoom="2.5080194"
     inkscape:cx="98.484088"
     inkscape:cy="100.07897"
     inkscape:window-width="1920"
     inkscape:window-height="1019"
     inkscape:window-x="0"
     inkscape:window-y="32"
     inkscape:window-maximized="1"
     inkscape:current-layer="svg39" />
  <metadata
     id="metadata1">&#10;Created by potrace 1.10, written by Peter Selinger 2001-2011&#10;</metadata>
  <g
     transform="translate(0.000000,165.000000) scale(0.100000,-0.100000)"
     fill="#000000"
     stroke="none"
     id="g39"
     style="fill:url(#linearGradient40)">
    <path
       d="M1726 1641 l-50 -6 60 -27 c33 -16 62 -28 65 -28 3 0 3 16 1 35 -2 19 -9 34 -16 33 -6 0 -33 -4 -60 -7z"
       id="path1"
       style="fill:url(#linearGradient40)" />
    <path
       d="M1600 1592 c0 -40 2 -43 22 -37 14 5 43 -3 90 -26 61 -30 70 -31 84 -18 22 22 10 42 -39 62 -23 9 -58 27 -77 39 -19 12 -45 23 -57 23 -21 1 -23 -4 -23 -43z"
       id="path2"
       style="fill:url(#linearGradient40)" />
    <path
       d="M735 1563 c-11 -3 -25 -13 -32 -23 -7 -10 -32 -29 -56 -43 -54 -32 -69 -50 -61 -71 10 -26 41 -19 99 24 30 22 62 40 71 40 10 0 37 -11 61 -25 23 -14 43 -22 43 -18 0 19 -46 93 -58 93 -7 0 -15 7 -18 15 -6 15 -14 17 -49 8z"
       id="path3"
       style="fill:url(#linearGradient40)" />
    <path
       d="M603 1553 c-18 -2 -33 -6 -33 -9 0 -2 -13 -50 -30 -106 -16 -56 -28 -103 -27 -103 1 -1 28 -14 59 -29 l58 -27 35 27 c19 14 35 34 36 43 0 10 2 11 6 3 4 -9 11 -8 33 5 28 16 30 15 98 -20 39 -20 73 -37 76 -37 13 0 5 37 -17 74 -17 29 -36 45 -84 66 l-62 28 -61 -45 c-55 -41 -64 -45 -93 -36 -27 7 -32 14 -35 43 -2 32 2 38 48 70 93 65 88 60 55 58 -16 -1 -45 -3 -62 -5z m215 -149 c18 -8 34 -19 37 -24 6 -10 -31 -3 -62 12 -17 8 -33 8 -62 -2 -42 -14 -95 -53 -84 -64 17 -16 -45 -3 -67 15 l-25 21 34 -6 c34 -6 101 17 101 35 0 5 9 9 21 9 11 0 17 5 14 10 -10 16 58 12 93 -6z"
       id="path4"
       style="fill:url(#linearGradient40)" />
    <path
       d="M1613 1528 c-5 -7 -8 -34 -5 -60 3 -41 6 -46 21 -36 13 8 33 2 88 -25 60 -31 73 -34 88 -23 15 10 17 21 11 59 -6 41 -9 45 -25 36 -13 -9 -33 -4 -91 25 -41 20 -76 36 -76 36 -1 0 -6 -6 -11 -12z m60 -48 c17 0 107 -44 107 -52 0 -12 -38 -10 -45 2 -3 6 -15 10 -26 10 -10 0 -19 5 -19 10 0 6 -9 10 -20 10 -14 0 -20 6 -19 23 0 12 3 16 6 10 2 -7 10 -13 16 -13z"
       id="path5"
       style="fill:url(#linearGradient40)" />
    <path
       d="M1619 1406 c-2 -2 -2 -27 -1 -55 3 -45 6 -49 21 -39 13 8 24 7 43 -6 23 -15 27 -26 33 -96 l7 -79 61 -31 c33 -16 61 -29 62 -28 1 2 0 24 -3 49 -3 37 -9 49 -28 58 -25 11 -24 8 -29 141 0 21 -12 31 -65 57 -61 30 -91 38 -101 29z m85 -56 l43 -19 12 -76 c10 -72 27 -115 43 -115 5 0 8 -5 8 -12 0 -9 -3 -9 -12 0 -7 7 -20 12 -29 12 -14 0 -18 14 -24 73 -7 68 -9 74 -51 115 -50 48 -50 50 10 22z"
       id="path6"
       style="fill:url(#linearGradient40)" />
    <path
       d="M1806 1361 c-4 -6 -5 -15 -2 -19 3 -5 6 -34 7 -66 1 -31 8 -65 15 -74 10 -14 11 -1 7 68 -5 83 -14 112 -27 91z"
       id="path7"
       style="fill:url(#linearGradient40)" />
    <path
       d="M743 1333 c-34 -13 1 -82 48 -97 38 -12 46 -33 48 -124 l1 -53 75 -34 c73 -33 75 -35 75 -69 0 -26 -6 -38 -22 -48 -13 -7 -29 -11 -35 -10 -17 4 -17 0 8 -52 l22 -44 58 42 c57 40 58 42 59 88 0 26 -7 65 -16 87 -13 34 -23 42 -75 61 -33 13 -63 28 -66 34 -4 6 -10 45 -13 86 l-5 75 -65 32 c-66 33 -76 35 -97 26z m130 -70 c5 -3 6 -10 4 -17 -9 -23 12 -128 30 -148 10 -11 41 -31 70 -44 50 -23 52 -26 58 -72 3 -26 8 -55 9 -64 4 -18 -37 -52 -55 -46 -6 2 -1 15 10 30 27 34 27 82 0 109 -12 12 -45 32 -74 45 -37 16 -54 29 -53 41 0 10 -2 43 -5 73 -5 46 -11 59 -39 83 l-33 28 35 -7 c19 -3 39 -9 43 -11z"
       id="path8"
       style="fill:url(#linearGradient40)" />
    <path
       d="M492 1273 c-12 -38 -4 -54 30 -65 5 -2 10 -16 11 -32 3 -37 -43 -76 -67 -57 -12 10 -16 6 -25 -26 -15 -51 -15 -49 20 -67 29 -14 32 -14 72 17 24 18 53 39 65 47 21 14 22 20 16 92 l-7 77 -48 26 c-27 14 -50 25 -52 25 -2 0 -9 -17 -15 -37z m63 -23 c15 -6 25 -16 22 -23 -2 -7 -1 -33 3 -59 3 -26 4 -51 1 -56 -9 -14 -79 -52 -96 -52 -24 0 -17 14 14 28 44 19 71 67 60 105 -5 16 -16 38 -25 48 -20 22 -16 23 21 9z"
       id="path9"
       style="fill:url(#linearGradient40)" />
    <path
       d="M652 1267 c-18 -19 -20 -29 -14 -76 l7 -54 18 72 c11 40 17 74 15 77 -3 2 -14 -6 -26 -19z"
       id="path10"
       style="fill:url(#linearGradient40)" />
    <path
       d="M934 1253 c3 -21 6 -56 6 -78 0 -36 4 -42 41 -63 22 -13 43 -22 45 -19 2 2 -9 31 -25 63 -16 32 -36 76 -44 97 -9 20 -19 37 -23 37 -4 0 -4 -17 0 -37z"
       id="path11"
       style="fill:url(#linearGradient40)" />
    <path
       d="M1633 1278 c-6 -8 -7 -36 -2 -73 4 -33 8 -84 8 -113 1 -46 3 -52 17 -44 12 7 37 0 88 -23 52 -25 75 -31 88 -24 36 19 23 34 -72 83 l-65 34 -7 78 c-8 85 -29 115 -55 82z"
       id="path12"
       style="fill:url(#linearGradient40)" />
    <path
       d="M770 1215 c0 -8 40 -85 43 -85 7 0 -6 66 -15 78 -11 12 -28 17 -28 7z"
       id="path13"
       style="fill:url(#linearGradient40)" />
    <path
       d="M465 1179 c-8 -36 -3 -43 24 -34 23 7 28 34 9 53 -19 19 -26 15 -33 -19z"
       id="path14"
       style="fill:url(#linearGradient40)" />
    <path
       d="M570 1039 l-55 -41 4 -77 c2 -42 5 -79 8 -83 15 -26 32 5 64 117 19 69 35 125 34 125 0 0 -25 -19 -55 -41z"
       id="path15"
       style="fill:url(#linearGradient40)" />
    <path
       d="M860 1024 c0 -2 10 -24 22 -49 23 -48 50 -64 73 -45 26 22 16 38 -40 68 -30 17 -55 28 -55 26z"
       id="path16"
       style="fill:url(#linearGradient40)" />
    <path
       d="M1657 1023 c-4 -3 -7 -28 -7 -55 0 -46 1 -48 24 -42 16 4 44 -5 85 -26 77 -38 101 -34 101 18 0 48 -13 70 -33 54 -11 -9 -28 -4 -83 23 -74 37 -77 38 -87 28z m85 -63 c23 -11 47 -20 54 -20 6 0 14 -6 17 -14 4 -10 0 -12 -16 -7 -41 13 -107 46 -107 53 0 12 7 10 52 -12z"
       id="path17"
       style="fill:url(#linearGradient40)" />
    <path
       d="M413 1003 c-9 -22 -8 -60 2 -154 l8 -76 46 -24 c25 -13 49 -25 52 -27 4 -1 10 10 13 25 4 15 9 35 12 44 3 11 -3 19 -20 23 -22 5 -25 12 -31 83 -8 100 -5 93 -43 109 -29 12 -34 12 -39 -3z m55 -120 c2 -32 11 -66 19 -75 21 -23 13 -37 -14 -27 -20 7 -23 16 -23 62 0 30 -3 70 -6 88 -5 28 -4 32 6 22 7 -7 15 -38 18 -70z"
       id="path18"
       style="fill:url(#linearGradient40)" />
    <path
       d="M1098 906 c-3 -36 -9 -44 -64 -81 l-62 -41 34 -73 c19 -41 34 -75 34 -77 0 -1 -15 -5 -32 -7 -32 -4 -32 -4 -9 -12 14 -5 48 -20 76 -34 l52 -26 60 41 59 41 -15 34 c-8 19 -16 36 -17 37 -2 2 -24 -11 -50 -28 -45 -31 -48 -32 -73 -17 -18 11 -27 26 -29 49 -3 31 1 36 47 63 28 17 51 33 51 36 0 4 -13 35 -29 70 l-29 64 -4 -39z m-8 -105 c-14 -9 -32 -23 -41 -32 -12 -13 -20 -14 -28 -6 -8 8 1 18 31 38 45 28 80 28 38 0z m110 -158 c-8 -3 -23 -14 -34 -25 -23 -21 -63 -23 -88 -4 -23 17 -12 28 13 13 14 -9 25 -8 51 5 18 9 42 17 53 17 14 -1 15 -2 5 -6z"
       id="path19"
       style="fill:url(#linearGradient40)" />
    <path
       d="M349 787 c-19 -70 -32 -127 -28 -127 4 0 11 4 14 10 18 29 43 29 104 0 l62 -29 9 25 c6 14 10 27 10 29 0 2 -27 16 -60 31 -65 29 -67 33 -72 138 -3 48 -4 45 -39 -77z"
       id="path20"
       style="fill:url(#linearGradient40)" />
    <path
       d="M1672 902 c-7 -2 -12 -23 -12 -54 0 -44 2 -49 19 -43 10 3 30 0 44 -6 23 -10 26 -19 32 -93 l7 -82 61 -32 c33 -17 62 -30 63 -29 1 1 0 24 -3 51 -4 36 -11 50 -24 53 -22 6 -26 17 -34 108 l-7 70 -67 31 c-36 17 -72 29 -79 26z m65 -53 c6 -6 19 -12 29 -13 16 -2 21 -17 30 -77 10 -75 27 -119 44 -119 6 0 10 -5 10 -11 0 -10 -38 -3 -53 10 -4 4 -11 40 -16 80 -8 62 -14 78 -39 100 -16 15 -35 25 -42 23 -7 -3 -10 0 -6 7 9 14 29 14 43 0z"
       id="path21"
       style="fill:url(#linearGradient40)" />
    <path
       d="M1848 854 c-4 -3 -5 -20 -3 -37 3 -18 7 -53 10 -79 10 -78 24 -54 18 30 -5 74 -13 99 -25 86z"
       id="path22"
       style="fill:url(#linearGradient40)" />
    <path
       d="M1140 769 c-14 -11 -33 -27 -43 -35 -20 -16 -19 -33 4 -47 10 -7 26 -1 54 17 22 15 41 29 43 30 4 5 -20 56 -27 56 -3 -1 -17 -10 -31 -21z"
       id="path23"
       style="fill:url(#linearGradient40)" />
    <path
       d="M1668 769 c-2 -6 -1 -37 3 -68 4 -31 8 -80 8 -109 1 -48 3 -53 20 -47 11 3 28 2 38 -4 98 -52 121 -60 138 -47 29 21 12 41 -64 76 -77 36 -76 33 -86 134 -3 32 -8 63 -11 67 -8 13 -42 11 -46 -2z"
       id="path24"
       style="fill:url(#linearGradient40)" />
    <path
       d="M334 642 c-21 -18 -39 -48 -52 -89 -11 -35 -20 -63 -18 -63 1 0 27 18 56 40 29 22 61 40 69 40 9 0 43 -14 77 -31 l61 -32 67 43 c36 23 66 45 66 47 0 3 -38 2 -85 -2 -73 -6 -85 -5 -85 8 0 13 -97 68 -119 67 -3 0 -20 -13 -37 -28z m113 -39 c16 -10 21 -19 13 -21 -6 -2 -17 1 -23 7 -6 6 -28 11 -48 11 -40 0 -61 15 -32 23 25 7 61 -1 90 -20z"
       id="path25"
       style="fill:url(#linearGradient40)" />
    <path
       d="M910 623 c-34 -4 -36 -6 -32 -38 4 -30 10 -36 64 -60 33 -15 68 -35 78 -45 14 -14 28 -17 57 -13 37 5 39 7 35 37 -3 29 -11 36 -74 66 -39 19 -73 40 -75 47 -3 7 -8 12 -12 11 -3 -1 -22 -3 -41 -5z m58 -52 c9 -5 28 -14 42 -20 36 -17 64 -40 58 -46 -8 -8 -128 54 -128 66 0 11 6 11 28 0z"
       id="path26"
       style="fill:url(#linearGradient40)" />
    <path
       d="M807 613 c-15 -4 -17 -11 -12 -43 l7 -39 -71 -47 c-39 -26 -71 -49 -71 -51 0 -12 120 12 143 29 28 19 30 19 60 3 26 -13 43 -15 90 -8 l59 8 -76 34 c-74 34 -75 35 -78 75 -3 42 -13 49 -51 39z"
       id="path27"
       style="fill:url(#linearGradient40)" />
    <path
       d="M1241 606 c-7 -8 -34 -29 -60 -46 l-48 -30 4 -53 c4 -50 49 -177 63 -177 23 0 29 29 24 106 -7 80 -6 82 19 99 20 13 30 14 46 5 27 -14 26 -6 -8 58 -23 46 -29 51 -40 38z m-1 -56 c0 -5 -11 -20 -25 -34 -19 -20 -25 -36 -26 -73 -1 -62 -17 -29 -18 37 -1 39 3 47 27 62 32 19 42 21 42 8z"
       id="path28"
       style="fill:url(#linearGradient40)" />
    <path
       d="M683 593 c-2 -10 -34 -38 -69 -62 -43 -29 -63 -49 -60 -58 4 -8 6 -23 6 -33 0 -16 6 -18 38 -13 20 3 41 12 45 19 4 8 35 32 67 54 54 37 60 44 60 75 0 34 -1 35 -41 35 -30 0 -42 -4 -46 -17z m47 -38 c0 -8 -3 -14 -7 -13 -8 3 -37 -19 -74 -54 -9 -9 -20 -13 -24 -10 -3 4 -10 0 -15 -8 -5 -8 -12 -12 -15 -8 -10 10 43 57 109 95 26 16 26 16 26 -2z"
       id="path29"
       style="fill:url(#linearGradient40)" />
    <path
       d="M330 509 c-30 -21 -60 -43 -66 -47 -7 -6 -7 -33 0 -87 8 -68 8 -78 -7 -87 -51 -28 -68 -55 -92 -143 -14 -49 -25 -91 -25 -92 0 -2 19 -12 41 -24 34 -17 52 -20 98 -14 l57 7 12 44 c18 65 16 68 -26 34 -37 -30 -39 -30 -70 -14 -26 13 -32 21 -32 47 1 28 9 38 69 78 l67 47 -9 77 c-9 76 -9 78 14 96 29 22 48 23 73 4 11 -8 38 -15 61 -15 41 0 41 1 37 31 -4 27 -13 35 -71 61 -36 17 -68 32 -71 33 -3 2 -30 -15 -60 -36z m115 -24 c68 -31 68 -43 -1 -19 -45 15 -50 15 -80 -1 -18 -10 -37 -29 -43 -44 -10 -24 -8 -93 4 -131 6 -19 -39 -56 -81 -66 -28 -6 -28 -6 11 29 l40 35 0 81 0 82 45 29 c25 16 46 29 46 29 1 1 27 -10 59 -24z m-200 -443 c-24 -5 -65 25 -59 43 5 11 13 9 40 -13 25 -20 30 -28 19 -30z"
       id="path30"
       style="fill:url(#linearGradient40)" />
    <path
       d="M1701 522 c-6 -2 -11 -27 -11 -58 0 -50 2 -54 18 -45 14 8 35 2 87 -25 87 -43 105 -39 105 25 0 56 -5 64 -31 48 -16 -10 -31 -6 -88 23 -38 20 -74 34 -80 32z m49 -50 c0 -4 23 -16 50 -26 45 -16 68 -32 59 -40 -2 -2 -34 10 -71 27 -65 29 -85 47 -53 47 8 0 15 -4 15 -8z"
       id="path31"
       style="fill:url(#linearGradient40)" />
    <path
       d="M1255 480 c-4 -7 -4 -47 -1 -89 7 -75 6 -77 -18 -91 -28 -14 -32 -30 -15 -61 10 -19 10 -19 36 1 33 26 36 26 115 -14 37 -19 70 -31 73 -26 14 22 -28 72 -78 95 l-52 24 -5 83 c-5 76 -7 83 -27 86 -11 2 -24 -2 -28 -8z"
       id="path32"
       style="fill:url(#linearGradient40)" />
    <path
       d="M1336 395 c3 -33 7 -60 7 -61 1 0 15 -8 30 -18 16 -10 30 -16 32 -14 2 2 -15 37 -36 78 l-40 75 7 -60z"
       id="path33"
       style="fill:url(#linearGradient40)" />
    <path
       d="M377 414 c-3 -4 -3 -42 0 -86 6 -79 6 -80 -23 -104 -16 -13 -46 -34 -66 -46 -40 -23 -52 -61 -23 -72 13 -4 63 21 100 52 15 12 69 228 62 247 -6 15 -38 21 -50 9z"
       id="path34"
       style="fill:url(#linearGradient40)" />
    <path
       d="M1707 393 c-4 -3 -7 -28 -7 -55 0 -44 2 -49 19 -43 10 3 30 1 44 -4 22 -9 26 -17 32 -80 l7 -71 62 0 61 1 -27 22 c-24 20 -27 30 -30 95 l-4 73 -68 35 c-72 36 -79 38 -89 27z m86 -58 c32 -6 35 -10 41 -52 3 -25 6 -60 5 -77 -1 -30 -1 -30 -9 -6 -5 14 -11 42 -15 64 -4 26 -12 40 -26 43 -10 3 -19 9 -19 14 0 5 -6 9 -14 9 -8 0 -18 5 -22 12 -5 7 -2 9 9 5 8 -3 31 -9 50 -12z"
       id="path35"
       style="fill:url(#linearGradient40)" />
    <path
       d="M219 338 c-16 -57 -13 -72 10 -44 7 8 11 34 9 58 l-3 43 -16 -57z"
       id="path36"
       style="fill:url(#linearGradient40)" />
    <path
       d="M1888 345 c-8 -8 13 -149 24 -160 7 -7 9 -2 4 15 -3 14 -6 53 -6 88 0 55 -6 72 -22 57z"
       id="path37"
       style="fill:url(#linearGradient40)" />
    <path
       d="M1714 266 c-3 -7 -4 -40 -2 -72 l3 -59 34 -3 c28 -3 33 -1 27 13 -3 9 -6 36 -6 60 0 56 -41 101 -56 61z"
       id="path38"
       style="fill:url(#linearGradient40)" />
    <path
       d="M1265 218 c-11 -6 -22 -12 -24 -14 -5 -4 32 -84 40 -84 4 0 9 6 12 13 3 9 14 6 43 -10 33 -18 49 -21 101 -16 l61 6 -16 33 c-11 24 -21 33 -32 29 -9 -3 -47 8 -83 25 -75 34 -74 34 -102 18z m96 -52 c45 -21 49 -25 27 -25 -15 -1 -29 3 -33 8 -3 5 -19 12 -35 16 -17 4 -28 11 -24 16 7 12 3 13 65 -15z"
       id="path39"
       style="fill:url(#linearGradient40)" />
  </g>
</svg>
