<?xml version="1.0" encoding="UTF-8" standalone="no"?>
<svg
   version="1.0"
   width="300.000000pt"
   height="300.000000pt"
   viewBox="0 0 300.000000 300.000000"
   preserveAspectRatio="xMidYMid meet"
   id="svg18"
   sodipodi:docname="MuyE1O01.svg"
   inkscape:version="1.3 (0e150ed6c4, 2023-07-21)"
   xmlns:inkscape="http://www.inkscape.org/namespaces/inkscape"
   xmlns:sodipodi="http://sodipodi.sourceforge.net/DTD/sodipodi-0.dtd"
   xmlns:xlink="http://www.w3.org/1999/xlink"
   xmlns="http://www.w3.org/2000/svg"
   xmlns:svg="http://www.w3.org/2000/svg">
  <defs
     id="defs18">
    <linearGradient
       id="linearGradient18"
       inkscape:collect="always">
      <stop
         style="stop-color:#1b8ed8;stop-opacity:1;"
         offset="0"
         id="stop19" />
      <stop
         style="stop-color:#8020eb;stop-opacity:1;"
         offset="0.5"
         id="stop1" />
      <stop
         style="stop-color:#ff00ff;stop-opacity:1;"
         offset="1"
         id="stop18" />
    </linearGradient>
    <linearGradient
       inkscape:collect="always"
       xlink:href="#linearGradient18"
       id="linearGradient19"
       x1="1140.2577"
       y1="1499.3726"
       x2="1900.024"
       y2="1499.3726"
       gradientUnits="userSpaceOnUse"
       spreadMethod="repeat" />
  </defs>
  <sodipodi:namedview
     id="namedview18"
     pagecolor="#ffffff"
     bordercolor="#cccccc"
     borderopacity="1"
     inkscape:showpageshadow="0"
     inkscape:pageopacity="1"
     inkscape:pagecheckerboard="0"
     inkscape:deskcolor="#d1d1d1"
     inkscape:document-units="pt"
     inkscape:zoom="2.105"
     inkscape:cx="200"
     inkscape:cy="199.52494"
     inkscape:window-width="1920"
     inkscape:window-height="1019"
     inkscape:window-x="0"
     inkscape:window-y="32"
     inkscape:window-maximized="1"
     inkscape:current-layer="svg18" />
  <metadata
     id="metadata1">&#10;Created by potrace 1.10, written by Peter Selinger 2001-2011&#10;</metadata>
  <g
     transform="translate(0.000000,300.000000) scale(0.100000,-0.100000)"
     fill="#000000"
     stroke="none"
     id="g18"
     style="fill:url(#linearGradient19)">
    <path
       d="M1408 2571 c-172 -180 -231 -279 -232 -386 -1 -137 71 -237 262 -366 233 -158 277 -207 276 -309 0 -69 -36 -151 -94 -214 -39 -42 -45 -45 -98 -48 l-57 -3 74 -44 74 -44 54 59 c158 175 198 308 130 440 -35 67 -109 135 -262 242 -72 49 -151 112 -177 140 -111 119 -84 223 111 425 111 116 120 131 94 166 -38 50 -61 41 -155 -58z m117 22 c0 -6 -36 -50 -80 -98 -155 -169 -204 -263 -185 -352 24 -106 77 -160 300 -308 92 -61 180 -147 205 -200 30 -60 27 -161 -5 -220 -30 -55 -43 -59 -24 -7 21 58 18 155 -7 207 -27 57 -74 99 -234 210 -224 156 -279 227 -277 357 1 49 7 79 25 115 36 69 104 157 187 241 65 66 95 83 95 55z"
       id="path1"
       style="fill:url(#linearGradient19)" />
    <path
       d="M1153 2633 c-19 -7 -16 -50 4 -57 24 -10 51 20 37 41 -12 19 -23 24 -41 16z"
       id="path2"
       style="fill:url(#linearGradient19)" />
    <path
       d="M1853 2633 c-18 -7 -16 -50 2 -57 36 -14 61 24 33 52 -13 13 -16 13 -35 5z"
       id="path3"
       style="fill:url(#linearGradient19)" />
    <path
       d="M1558 2509 l-27 -29 67 -68 c87 -88 116 -146 116 -232 1 -78 -29 -140 -102 -215 l-47 -47 34 -27 34 -28 54 56 c29 31 69 88 89 128 34 66 36 77 33 145 -5 97 -37 160 -134 266 -42 45 -80 81 -83 81 -4 -1 -19 -14 -34 -30z"
       id="path4"
       style="fill:url(#linearGradient19)" />
    <path
       d="M1443 2397 c-25 -27 -4 -38 68 -35 56 3 64 5 64 23 0 17 -8 21 -58 25 -47 4 -61 2 -74 -13z"
       id="path5"
       style="fill:url(#linearGradient19)" />
    <path
       d="M1347 2284 c-13 -13 -7 -42 9 -48 24 -9 297 -7 312 3 8 5 12 17 10 27 -3 18 -16 19 -164 22 -88 1 -163 -1 -167 -4z"
       id="path6"
       style="fill:url(#linearGradient19)" />
    <path
       d="M1343 2163 c-18 -7 -16 -40 3 -47 9 -3 84 -6 169 -6 123 0 155 3 165 15 10 12 10 18 0 30 -10 12 -41 15 -169 14 -86 0 -162 -3 -168 -6z"
       id="path7"
       style="fill:url(#linearGradient19)" />
    <path
       d="M1410 2032 c0 -5 8 -17 19 -26 15 -14 35 -16 102 -14 76 3 84 5 84 23 0 19 -8 20 -102 23 -57 1 -103 -1 -103 -6z"
       id="path8"
       style="fill:url(#linearGradient19)" />
    <path
       d="M1368 1698 c-261 -264 -241 -414 82 -610 209 -128 270 -190 270 -279 0 -64 -40 -126 -175 -273 -63 -70 -115 -133 -115 -141 0 -23 37 -55 63 -55 17 0 52 29 118 98 115 118 170 189 205 266 23 50 26 68 22 125 -9 127 -67 192 -315 354 -192 126 -218 155 -218 237 0 49 5 65 39 115 59 89 141 163 184 167 l36 3 -57 38 -57 37 -82 -82z m-93 -209 c-20 -55 -18 -96 4 -144 29 -63 66 -93 292 -238 304 -194 306 -347 12 -647 -66 -67 -86 -82 -93 -70 -12 19 -7 26 70 107 100 104 178 210 191 256 33 124 -29 211 -251 348 -120 74 -182 122 -218 167 -58 73 -65 117 -31 206 25 64 46 77 24 15z"
       id="path9"
       style="fill:url(#linearGradient19)" />
    <path
       d="M1435 1610 c-10 -11 -15 -23 -12 -27 5 -5 167 -8 220 -4 5 1 7 11 5 24 -3 21 -8 22 -99 25 -85 2 -97 1 -114 -18z"
       id="path10"
       style="fill:url(#linearGradient19)" />
    <path
       d="M1344 1485 c-12 -31 7 -35 171 -35 165 0 180 3 167 38 -7 19 -331 17 -338 -3z"
       id="path11"
       style="fill:url(#linearGradient19)" />
    <path
       d="M1364 1365 c-3 -8 -3 -22 0 -30 5 -13 26 -15 133 -13 l128 3 0 25 0 25 -128 3 c-107 2 -128 0 -133 -13z"
       id="path12"
       style="fill:url(#linearGradient19)" />
    <path
       d="M1371 985 c-87 -94 -122 -163 -122 -239 0 -77 27 -131 108 -216 l68 -71 45 45 44 46 -31 0 c-23 0 -40 10 -72 46 -73 78 -90 157 -51 234 29 57 138 170 164 170 16 0 9 8 -26 30 -27 17 -50 30 -52 30 -2 0 -36 -34 -75 -75z"
       id="path13"
       style="fill:url(#linearGradient19)" />
    <path
       d="M1452 921 c-8 -5 -12 -17 -10 -27 3 -17 14 -19 97 -22 102 -3 128 6 110 39 -8 16 -21 19 -97 19 -48 0 -93 -4 -100 -9z"
       id="path14"
       style="fill:url(#linearGradient19)" />
    <path
       d="M1382 801 c-8 -5 -12 -17 -10 -27 3 -18 15 -19 158 -19 143 0 155 1 158 19 2 10 -2 22 -10 27 -7 5 -74 9 -148 9 -74 0 -141 -4 -148 -9z"
       id="path15"
       style="fill:url(#linearGradient19)" />
    <path
       d="M1404 665 c-11 -29 7 -35 105 -35 74 0 102 4 111 15 23 27 0 35 -106 35 -82 0 -106 -3 -110 -15z"
       id="path16"
       style="fill:url(#linearGradient19)" />
    <path
       d="M1150 415 c-19 -23 -8 -50 20 -50 18 0 26 6 28 22 4 29 -30 49 -48 28z"
       id="path17"
       style="fill:url(#linearGradient19)" />
    <path
       d="M1844 406 c-10 -26 4 -48 28 -44 17 2 23 10 23 28 0 18 -6 26 -23 28 -13 2 -25 -3 -28 -12z"
       id="path18"
       style="fill:url(#linearGradient19)" />
  </g>
</svg>
