<svg width="300mm" height="175mm" xmlns="http://www.w3.org/2000/svg" xmlns:xlink="http://www.w3.org/1999/xlink" xml:space="preserve" id="svg1" version="1.1" viewBox="0 0 1000.0002 799.99999"><defs id="defs1"><linearGradient id="linearGradient154"><stop id="stop152" offset="0" style="stop-color:#ff0;stop-opacity:1"/><stop id="stop153" offset=".5148043" style="stop-color:#ff02ff;stop-opacity:.8411293"/><stop id="stop154" offset="1" style="stop-color:#007eff;stop-opacity:1"/></linearGradient><linearGradient id="linearGradient151"><stop id="stop149" offset="0" style="stop-color:#ff0;stop-opacity:1"/><stop id="stop150" offset=".5148043" style="stop-color:#ff027f;stop-opacity:.8411293"/><stop id="stop151" offset="1" style="stop-color:#007eff;stop-opacity:1"/></linearGradient><linearGradient id="linearGradient39"><stop id="stop39" offset="0" style="stop-color:#0f0;stop-opacity:1"/><stop id="stop42" offset=".5" style="stop-color:#00ff8d;stop-opacity:1"/><stop id="stop41" offset="1" style="stop-color:#1bffff;stop-opacity:1"/></linearGradient><linearGradient xlink:href="#linearGradient39" id="linearGradient40" x1="140" x2="1925" y1="830.10535" y2="830.10535" gradientUnits="userSpaceOnUse"/><linearGradient id="linearGradient17"><stop id="stop17" offset="0" style="stop-color:#ff8500;stop-opacity:1"/><stop id="stop1" offset=".5" style="stop-color:#ff6a7f;stop-opacity:1"/><stop id="stop18" offset="1" style="stop-color:#ff4fff;stop-opacity:1"/></linearGradient><linearGradient xlink:href="#linearGradient17" id="linearGradient18" x1="671.18341" x2="2368.8655" y1="1501.3085" y2="1501.3085" gradientUnits="userSpaceOnUse"/><linearGradient id="linearGradient18-6"><stop id="stop19" offset="0" style="stop-color:#1b8ed8;stop-opacity:1"/><stop id="stop1-2" offset=".5" style="stop-color:#8020eb;stop-opacity:1"/><stop id="stop18-9" offset="1" style="stop-color:#f0f;stop-opacity:1"/></linearGradient><linearGradient xlink:href="#linearGradient18-6" id="linearGradient19" x1="1140.2577" x2="1900.024" y1="1499.3726" y2="1499.3726" gradientUnits="userSpaceOnUse" spreadMethod="repeat"/><linearGradient id="linearGradient9"><stop id="stop9" offset="0" style="stop-color:#0f0;stop-opacity:1"/><stop id="stop1-5" offset=".4519887" style="stop-color:#008d61;stop-opacity:1"/><stop id="stop10" offset="1" style="stop-color:#00ffd2;stop-opacity:1"/></linearGradient><linearGradient xlink:href="#linearGradient9" id="linearGradient10" x1="948" x2="2047.4023" y1="1484.5714" y2="1484.5714" gradientUnits="userSpaceOnUse"/><linearGradient id="linearGradient8"><stop id="stop8" offset="0" style="stop-color:#01aeff;stop-opacity:1"/><stop id="stop1-9" offset=".5" style="stop-color:#8057ff;stop-opacity:1"/><stop id="stop9-4" offset="1" style="stop-color:#f0f;stop-opacity:1"/></linearGradient><linearGradient xlink:href="#linearGradient8" id="linearGradient1" x1="2501.7009" x2="6325" y1="4410.708" y2="4410.708" gradientUnits="userSpaceOnUse" spreadMethod="reflect"/><linearGradient id="linearGradient26"><stop id="stop26" offset=".2898305" style="stop-color:#00a6ff;stop-opacity:1"/><stop id="stop2" offset=".7098377" style="stop-color:#fe3a74;stop-opacity:1"/><stop id="stop27" offset="1" style="stop-color:#feab00;stop-opacity:1"/></linearGradient><linearGradient xlink:href="#linearGradient8" id="linearGradient24" x1="2501.7009" x2="6325" y1="4410.708" y2="4410.708" gradientUnits="userSpaceOnUse" spreadMethod="reflect"/><linearGradient xlink:href="#linearGradient8" id="linearGradient25" x1="2501.7009" x2="6325" y1="4410.708" y2="4410.708" gradientUnits="userSpaceOnUse" spreadMethod="reflect"/><linearGradient xlink:href="#linearGradient8" id="linearGradient27" x1="2501.7009" x2="6325" y1="4410.708" y2="4410.708" gradientUnits="userSpaceOnUse" spreadMethod="reflect"/><linearGradient xlink:href="#linearGradient9" id="linearGradient28" x1="948" x2="2047.4023" y1="1484.5714" y2="1484.5714" gradientUnits="userSpaceOnUse"/><linearGradient xlink:href="#linearGradient9" id="linearGradient29" x1="948" x2="2047.4023" y1="1484.5714" y2="1484.5714" gradientUnits="userSpaceOnUse"/><linearGradient xlink:href="#linearGradient9" id="linearGradient30" x1="948" x2="2047.4023" y1="1484.5714" y2="1484.5714" gradientUnits="userSpaceOnUse"/><linearGradient xlink:href="#linearGradient9" id="linearGradient31" x1="948" x2="2047.4023" y1="1484.5714" y2="1484.5714" gradientUnits="userSpaceOnUse"/><linearGradient xlink:href="#linearGradient9" id="linearGradient32" x1="948" x2="2047.4023" y1="1484.5714" y2="1484.5714" gradientUnits="userSpaceOnUse"/><linearGradient xlink:href="#linearGradient9" id="linearGradient33" x1="948" x2="2047.4023" y1="1484.5714" y2="1484.5714" gradientUnits="userSpaceOnUse"/><linearGradient xlink:href="#linearGradient9" id="linearGradient34" x1="948" x2="2047.4023" y1="1484.5714" y2="1484.5714" gradientUnits="userSpaceOnUse"/><linearGradient xlink:href="#linearGradient9" id="linearGradient35" x1="948" x2="2047.4023" y1="1484.5714" y2="1484.5714" gradientUnits="userSpaceOnUse"/><linearGradient xlink:href="#linearGradient9" id="linearGradient36" x1="948" x2="2047.4023" y1="1484.5714" y2="1484.5714" gradientUnits="userSpaceOnUse"/><linearGradient xlink:href="#linearGradient17" id="linearGradient37" x1="671.18341" x2="2368.8655" y1="1501.3085" y2="1501.3085" gradientUnits="userSpaceOnUse"/><linearGradient xlink:href="#linearGradient17" id="linearGradient38" x1="671.18341" x2="2368.8655" y1="1501.3085" y2="1501.3085" gradientUnits="userSpaceOnUse"/><linearGradient xlink:href="#linearGradient17" id="linearGradient41" x1="671.18341" x2="2368.8655" y1="1501.3085" y2="1501.3085" gradientUnits="userSpaceOnUse"/><linearGradient xlink:href="#linearGradient17" id="linearGradient42" x1="671.18341" x2="2368.8655" y1="1501.3085" y2="1501.3085" gradientUnits="userSpaceOnUse"/><linearGradient xlink:href="#linearGradient17" id="linearGradient43" x1="671.18341" x2="2368.8655" y1="1501.3085" y2="1501.3085" gradientUnits="userSpaceOnUse"/><linearGradient xlink:href="#linearGradient17" id="linearGradient44" x1="671.18341" x2="2368.8655" y1="1501.3085" y2="1501.3085" gradientUnits="userSpaceOnUse"/><linearGradient xlink:href="#linearGradient18-6" id="linearGradient45" x1="1140.2577" x2="1900.024" y1="1499.3726" y2="1499.3726" gradientUnits="userSpaceOnUse" spreadMethod="repeat"/><linearGradient xlink:href="#linearGradient18-6" id="linearGradient46" x1="1140.2577" x2="1900.024" y1="1499.3726" y2="1499.3726" gradientUnits="userSpaceOnUse" spreadMethod="repeat"/><linearGradient xlink:href="#linearGradient18-6" id="linearGradient47" x1="1140.2577" x2="1900.024" y1="1499.3726" y2="1499.3726" gradientUnits="userSpaceOnUse" spreadMethod="repeat"/><linearGradient xlink:href="#linearGradient18-6" id="linearGradient48" x1="1140.2577" x2="1900.024" y1="1499.3726" y2="1499.3726" gradientUnits="userSpaceOnUse" spreadMethod="repeat"/><linearGradient xlink:href="#linearGradient18-6" id="linearGradient49" x1="1140.2577" x2="1900.024" y1="1499.3726" y2="1499.3726" gradientUnits="userSpaceOnUse" spreadMethod="repeat"/><linearGradient xlink:href="#linearGradient18-6" id="linearGradient50" x1="1140.2577" x2="1900.024" y1="1499.3726" y2="1499.3726" gradientUnits="userSpaceOnUse" spreadMethod="repeat"/><linearGradient xlink:href="#linearGradient18-6" id="linearGradient51" x1="1140.2577" x2="1900.024" y1="1499.3726" y2="1499.3726" gradientUnits="userSpaceOnUse" spreadMethod="repeat"/><linearGradient xlink:href="#linearGradient18-6" id="linearGradient52" x1="1140.2577" x2="1900.024" y1="1499.3726" y2="1499.3726" gradientUnits="userSpaceOnUse" spreadMethod="repeat"/><linearGradient xlink:href="#linearGradient18-6" id="linearGradient53" x1="1140.2577" x2="1900.024" y1="1499.3726" y2="1499.3726" gradientUnits="userSpaceOnUse" spreadMethod="repeat"/><linearGradient xlink:href="#linearGradient18-6" id="linearGradient54" x1="1140.2577" x2="1900.024" y1="1499.3726" y2="1499.3726" gradientUnits="userSpaceOnUse" spreadMethod="repeat"/><linearGradient xlink:href="#linearGradient18-6" id="linearGradient55" x1="1140.2577" x2="1900.024" y1="1499.3726" y2="1499.3726" gradientUnits="userSpaceOnUse" spreadMethod="repeat"/><linearGradient xlink:href="#linearGradient18-6" id="linearGradient56" x1="1140.2577" x2="1900.024" y1="1499.3726" y2="1499.3726" gradientUnits="userSpaceOnUse" spreadMethod="repeat"/><linearGradient xlink:href="#linearGradient18-6" id="linearGradient57" x1="1140.2577" x2="1900.024" y1="1499.3726" y2="1499.3726" gradientUnits="userSpaceOnUse" spreadMethod="repeat"/><linearGradient xlink:href="#linearGradient18-6" id="linearGradient58" x1="1140.2577" x2="1900.024" y1="1499.3726" y2="1499.3726" gradientUnits="userSpaceOnUse" spreadMethod="repeat"/><linearGradient xlink:href="#linearGradient18-6" id="linearGradient59" x1="1140.2577" x2="1900.024" y1="1499.3726" y2="1499.3726" gradientUnits="userSpaceOnUse" spreadMethod="repeat"/><linearGradient xlink:href="#linearGradient18-6" id="linearGradient60" x1="1140.2577" x2="1900.024" y1="1499.3726" y2="1499.3726" gradientUnits="userSpaceOnUse" spreadMethod="repeat"/><linearGradient xlink:href="#linearGradient18-6" id="linearGradient61" x1="1140.2577" x2="1900.024" y1="1499.3726" y2="1499.3726" gradientUnits="userSpaceOnUse" spreadMethod="repeat"/><linearGradient xlink:href="#linearGradient18-6" id="linearGradient62" x1="1140.2577" x2="1900.024" y1="1499.3726" y2="1499.3726" gradientUnits="userSpaceOnUse" spreadMethod="repeat"/><linearGradient xlink:href="#linearGradient18-6" id="linearGradient101" x1="1140.2577" x2="1900.024" y1="1499.3726" y2="1499.3726" gradientUnits="userSpaceOnUse" spreadMethod="repeat"/><linearGradient xlink:href="#linearGradient39" id="linearGradient102" x1="140" x2="1925" y1="830.10535" y2="830.10535" gradientUnits="userSpaceOnUse"/><linearGradient xlink:href="#linearGradient39" id="linearGradient103" x1="140" x2="1925" y1="830.10535" y2="830.10535" gradientUnits="userSpaceOnUse"/><linearGradient xlink:href="#linearGradient39" id="linearGradient104" x1="140" x2="1925" y1="830.10535" y2="830.10535" gradientUnits="userSpaceOnUse"/><linearGradient xlink:href="#linearGradient39" id="linearGradient105" x1="140" x2="1925" y1="830.10535" y2="830.10535" gradientUnits="userSpaceOnUse"/><linearGradient xlink:href="#linearGradient39" id="linearGradient106" x1="140" x2="1925" y1="830.10535" y2="830.10535" gradientUnits="userSpaceOnUse"/><linearGradient xlink:href="#linearGradient39" id="linearGradient107" x1="140" x2="1925" y1="830.10535" y2="830.10535" gradientUnits="userSpaceOnUse"/><linearGradient xlink:href="#linearGradient39" id="linearGradient108" x1="140" x2="1925" y1="830.10535" y2="830.10535" gradientUnits="userSpaceOnUse"/><linearGradient xlink:href="#linearGradient39" id="linearGradient109" x1="140" x2="1925" y1="830.10535" y2="830.10535" gradientUnits="userSpaceOnUse"/><linearGradient xlink:href="#linearGradient39" id="linearGradient110" x1="140" x2="1925" y1="830.10535" y2="830.10535" gradientUnits="userSpaceOnUse"/><linearGradient xlink:href="#linearGradient39" id="linearGradient111" x1="140" x2="1925" y1="830.10535" y2="830.10535" gradientUnits="userSpaceOnUse"/><linearGradient xlink:href="#linearGradient39" id="linearGradient112" x1="140" x2="1925" y1="830.10535" y2="830.10535" gradientUnits="userSpaceOnUse"/><linearGradient xlink:href="#linearGradient39" id="linearGradient113" x1="140" x2="1925" y1="830.10535" y2="830.10535" gradientUnits="userSpaceOnUse"/><linearGradient xlink:href="#linearGradient39" id="linearGradient114" x1="140" x2="1925" y1="830.10535" y2="830.10535" gradientUnits="userSpaceOnUse"/><linearGradient xlink:href="#linearGradient39" id="linearGradient115" x1="140" x2="1925" y1="830.10535" y2="830.10535" gradientUnits="userSpaceOnUse"/><linearGradient xlink:href="#linearGradient39" id="linearGradient116" x1="140" x2="1925" y1="830.10535" y2="830.10535" gradientUnits="userSpaceOnUse"/><linearGradient xlink:href="#linearGradient39" id="linearGradient117" x1="140" x2="1925" y1="830.10535" y2="830.10535" gradientUnits="userSpaceOnUse"/><linearGradient xlink:href="#linearGradient39" id="linearGradient118" x1="140" x2="1925" y1="830.10535" y2="830.10535" gradientUnits="userSpaceOnUse"/><linearGradient xlink:href="#linearGradient39" id="linearGradient119" x1="140" x2="1925" y1="830.10535" y2="830.10535" gradientUnits="userSpaceOnUse"/><linearGradient xlink:href="#linearGradient39" id="linearGradient120" x1="140" x2="1925" y1="830.10535" y2="830.10535" gradientUnits="userSpaceOnUse"/><linearGradient xlink:href="#linearGradient39" id="linearGradient121" x1="140" x2="1925" y1="830.10535" y2="830.10535" gradientUnits="userSpaceOnUse"/><linearGradient xlink:href="#linearGradient39" id="linearGradient122" x1="140" x2="1925" y1="830.10535" y2="830.10535" gradientUnits="userSpaceOnUse"/><linearGradient xlink:href="#linearGradient39" id="linearGradient123" x1="140" x2="1925" y1="830.10535" y2="830.10535" gradientUnits="userSpaceOnUse"/><linearGradient xlink:href="#linearGradient39" id="linearGradient124" x1="140" x2="1925" y1="830.10535" y2="830.10535" gradientUnits="userSpaceOnUse"/><linearGradient xlink:href="#linearGradient39" id="linearGradient125" x1="140" x2="1925" y1="830.10535" y2="830.10535" gradientUnits="userSpaceOnUse"/><linearGradient xlink:href="#linearGradient39" id="linearGradient126" x1="140" x2="1925" y1="830.10535" y2="830.10535" gradientUnits="userSpaceOnUse"/><linearGradient xlink:href="#linearGradient39" id="linearGradient127" x1="140" x2="1925" y1="830.10535" y2="830.10535" gradientUnits="userSpaceOnUse"/><linearGradient xlink:href="#linearGradient39" id="linearGradient128" x1="140" x2="1925" y1="830.10535" y2="830.10535" gradientUnits="userSpaceOnUse"/><linearGradient xlink:href="#linearGradient39" id="linearGradient129" x1="140" x2="1925" y1="830.10535" y2="830.10535" gradientUnits="userSpaceOnUse"/><linearGradient xlink:href="#linearGradient39" id="linearGradient130" x1="140" x2="1925" y1="830.10535" y2="830.10535" gradientUnits="userSpaceOnUse"/><linearGradient xlink:href="#linearGradient39" id="linearGradient131" x1="140" x2="1925" y1="830.10535" y2="830.10535" gradientUnits="userSpaceOnUse"/><linearGradient xlink:href="#linearGradient39" id="linearGradient132" x1="140" x2="1925" y1="830.10535" y2="830.10535" gradientUnits="userSpaceOnUse"/><linearGradient xlink:href="#linearGradient39" id="linearGradient133" x1="140" x2="1925" y1="830.10535" y2="830.10535" gradientUnits="userSpaceOnUse"/><linearGradient xlink:href="#linearGradient39" id="linearGradient134" x1="140" x2="1925" y1="830.10535" y2="830.10535" gradientUnits="userSpaceOnUse"/><linearGradient xlink:href="#linearGradient39" id="linearGradient135" x1="140" x2="1925" y1="830.10535" y2="830.10535" gradientUnits="userSpaceOnUse"/><linearGradient xlink:href="#linearGradient39" id="linearGradient136" x1="140" x2="1925" y1="830.10535" y2="830.10535" gradientUnits="userSpaceOnUse"/><linearGradient xlink:href="#linearGradient39" id="linearGradient137" x1="140" x2="1925" y1="830.10535" y2="830.10535" gradientUnits="userSpaceOnUse"/><linearGradient xlink:href="#linearGradient39" id="linearGradient138" x1="140" x2="1925" y1="830.10535" y2="830.10535" gradientUnits="userSpaceOnUse"/><linearGradient xlink:href="#linearGradient39" id="linearGradient139" x1="140" x2="1925" y1="830.10535" y2="830.10535" gradientUnits="userSpaceOnUse"/><linearGradient xlink:href="#linearGradient39" id="linearGradient140" x1="140" x2="1925" y1="830.10535" y2="830.10535" gradientUnits="userSpaceOnUse"/><linearGradient xlink:href="#linearGradient151" id="linearGradient5-7" x1="831.08295" x2="2240" y1="1499.8274" y2="1499.8274" gradientUnits="userSpaceOnUse"/><linearGradient xlink:href="#linearGradient154" id="linearGradient152" x1="831.08295" x2="2240" y1="1499.8274" y2="1499.8274" gradientUnits="userSpaceOnUse"/><linearGradient xlink:href="#linearGradient154" id="linearGradient155" x1="831.08295" x2="2240" y1="1499.8274" y2="1499.8274" gradientUnits="userSpaceOnUse"/><linearGradient xlink:href="#linearGradient154" id="linearGradient156" x1="831.08295" x2="2240" y1="1499.8274" y2="1499.8274" gradientUnits="userSpaceOnUse"/><linearGradient xlink:href="#linearGradient154" id="linearGradient157" x1="831.08295" x2="2240" y1="1499.8274" y2="1499.8274" gradientUnits="userSpaceOnUse"/><linearGradient xlink:href="#linearGradient154" id="linearGradient158" x1="831.08295" x2="2240" y1="1499.8274" y2="1499.8274" gradientUnits="userSpaceOnUse"/><linearGradient xlink:href="#linearGradient154" id="linearGradient159" x1="831.08295" x2="2240" y1="1499.8274" y2="1499.8274" gradientUnits="userSpaceOnUse"/><radialGradient xlink:href="#linearGradient26" id="radialGradient2" cx="1497.187" cy="1469.5901" r="941.06299" fx="1497.187" fy="1469.5901" gradientTransform="matrix(1 0 0 1.10557 0 -155.14291)" gradientUnits="userSpaceOnUse"/><radialGradient xlink:href="#linearGradient26" id="radialGradient1" cx="1497.187" cy="1469.5901" r="941.06299" fx="1497.187" fy="1469.5901" gradientTransform="matrix(1 0 0 1.10557 0 -155.14291)" gradientUnits="userSpaceOnUse"/><radialGradient xlink:href="#linearGradient26" id="radialGradient3" cx="1497.187" cy="1469.5901" r="941.06299" fx="1497.187" fy="1469.5901" gradientTransform="matrix(1 0 0 1.10557 0 -155.14291)" gradientUnits="userSpaceOnUse"/><radialGradient xlink:href="#linearGradient26" id="radialGradient4" cx="1497.187" cy="1469.5901" r="941.06299" fx="1497.187" fy="1469.5901" gradientTransform="matrix(1 0 0 1.10557 0 -155.14291)" gradientUnits="userSpaceOnUse"/><radialGradient xlink:href="#linearGradient26" id="radialGradient5" cx="1497.187" cy="1469.5901" r="941.06299" fx="1497.187" fy="1469.5901" gradientTransform="matrix(1 0 0 1.10557 0 -155.14291)" gradientUnits="userSpaceOnUse"/><radialGradient xlink:href="#linearGradient26" id="radialGradient6" cx="1497.187" cy="1469.5901" r="941.06299" fx="1497.187" fy="1469.5901" gradientTransform="matrix(1 0 0 1.10557 0 -155.14291)" gradientUnits="userSpaceOnUse"/><radialGradient xlink:href="#linearGradient26" id="radialGradient7" cx="1497.187" cy="1469.5901" r="941.06299" fx="1497.187" fy="1469.5901" gradientTransform="matrix(1 0 0 1.10557 0 -155.14291)" gradientUnits="userSpaceOnUse"/><radialGradient xlink:href="#linearGradient26" id="radialGradient8" cx="1497.187" cy="1469.5901" r="941.06299" fx="1497.187" fy="1469.5901" gradientTransform="matrix(1 0 0 1.10557 0 -155.14291)" gradientUnits="userSpaceOnUse"/><radialGradient xlink:href="#linearGradient26" id="radialGradient9" cx="1497.187" cy="1469.5901" r="941.06299" fx="1497.187" fy="1469.5901" gradientTransform="matrix(1 0 0 1.10557 0 -155.14291)" gradientUnits="userSpaceOnUse"/><radialGradient xlink:href="#linearGradient26" id="radialGradient10" cx="1497.187" cy="1469.5901" r="941.06299" fx="1497.187" fy="1469.5901" gradientTransform="matrix(1 0 0 1.10557 0 -155.14291)" gradientUnits="userSpaceOnUse"/><radialGradient xlink:href="#linearGradient26" id="radialGradient11" cx="1497.187" cy="1469.5901" r="941.06299" fx="1497.187" fy="1469.5901" gradientTransform="matrix(1 0 0 1.10557 0 -155.14291)" gradientUnits="userSpaceOnUse"/><radialGradient xlink:href="#linearGradient26" id="radialGradient12" cx="1497.187" cy="1469.5901" r="941.06299" fx="1497.187" fy="1469.5901" gradientTransform="matrix(1 0 0 1.10557 0 -155.14291)" gradientUnits="userSpaceOnUse"/><radialGradient xlink:href="#linearGradient26" id="radialGradient13" cx="1497.187" cy="1469.5901" r="941.06299" fx="1497.187" fy="1469.5901" gradientTransform="matrix(1 0 0 1.10557 0 -155.14291)" gradientUnits="userSpaceOnUse"/><radialGradient xlink:href="#linearGradient26" id="radialGradient14" cx="1497.187" cy="1469.5901" r="941.06299" fx="1497.187" fy="1469.5901" gradientTransform="matrix(1 0 0 1.10557 0 -155.14291)" gradientUnits="userSpaceOnUse"/><radialGradient xlink:href="#linearGradient26" id="radialGradient15" cx="1497.187" cy="1469.5901" r="941.06299" fx="1497.187" fy="1469.5901" gradientTransform="matrix(1 0 0 1.10557 0 -155.14291)" gradientUnits="userSpaceOnUse"/><radialGradient xlink:href="#linearGradient26" id="radialGradient16" cx="1497.187" cy="1469.5901" r="941.06299" fx="1497.187" fy="1469.5901" gradientTransform="matrix(1 0 0 1.10557 0 -155.14291)" gradientUnits="userSpaceOnUse"/><radialGradient xlink:href="#linearGradient26" id="radialGradient17" cx="1497.187" cy="1469.5901" r="941.06299" fx="1497.187" fy="1469.5901" gradientTransform="matrix(1 0 0 1.10557 0 -155.14291)" gradientUnits="userSpaceOnUse"/><radialGradient xlink:href="#linearGradient26" id="radialGradient18" cx="1497.187" cy="1469.5901" r="941.06299" fx="1497.187" fy="1469.5901" gradientTransform="matrix(1 0 0 1.10557 0 -155.14291)" gradientUnits="userSpaceOnUse"/><radialGradient xlink:href="#linearGradient26" id="radialGradient19" cx="1497.187" cy="1469.5901" r="941.06299" fx="1497.187" fy="1469.5901" gradientTransform="matrix(1 0 0 1.10557 0 -155.14291)" gradientUnits="userSpaceOnUse"/><radialGradient xlink:href="#linearGradient26" id="radialGradient20" cx="1497.187" cy="1469.5901" r="941.06299" fx="1497.187" fy="1469.5901" gradientTransform="matrix(1 0 0 1.10557 0 -155.14291)" gradientUnits="userSpaceOnUse"/><radialGradient xlink:href="#linearGradient26" id="radialGradient21" cx="1497.187" cy="1469.5901" r="941.06299" fx="1497.187" fy="1469.5901" gradientTransform="matrix(1 0 0 1.10557 0 -155.14291)" gradientUnits="userSpaceOnUse"/><radialGradient xlink:href="#linearGradient26" id="radialGradient22" cx="1497.187" cy="1469.5901" r="941.06299" fx="1497.187" fy="1469.5901" gradientTransform="matrix(1 0 0 1.10557 0 -155.14291)" gradientUnits="userSpaceOnUse"/><radialGradient xlink:href="#linearGradient26" id="radialGradient23" cx="1497.187" cy="1469.5901" r="941.06299" fx="1497.187" fy="1469.5901" gradientTransform="matrix(1 0 0 1.10557 0 -155.14291)" gradientUnits="userSpaceOnUse"/><radialGradient xlink:href="#linearGradient26" id="radialGradient24" cx="1497.187" cy="1469.5901" r="941.06299" fx="1497.187" fy="1469.5901" gradientTransform="matrix(1 0 0 1.10557 0 -155.14291)" gradientUnits="userSpaceOnUse"/></defs><g id="layer1"><g id="ai" fill="#000" stroke="none" style="fill:url(#linearGradient40)" transform="matrix(.06917 0 0 -.06917 814.34538 404.71014)"><path id="path1" d="m1726 1641-50-6 60-27c33-16 62-28 65-28s3 16 1 35-9 34-16 33c-6 0-33-4-60-7z" style="fill:url(#linearGradient102)"/><path id="path2" d="M1600 1592c0-40 2-43 22-37 14 5 43-3 90-26 61-30 70-31 84-18 22 22 10 42-39 62-23 9-58 27-77 39s-45 23-57 23c-21 1-23-4-23-43z" style="fill:url(#linearGradient103)"/><path id="path3" d="M735 1563c-11-3-25-13-32-23s-32-29-56-43c-54-32-69-50-61-71 10-26 41-19 99 24 30 22 62 40 71 40 10 0 37-11 61-25 23-14 43-22 43-18 0 19-46 93-58 93-7 0-15 7-18 15-6 15-14 17-49 8z" style="fill:url(#linearGradient104)"/><path id="path4" d="M603 1553c-18-2-33-6-33-9 0-2-13-50-30-106-16-56-28-103-27-103 1-1 28-14 59-29l58-27 35 27c19 14 35 34 36 43 0 10 2 11 6 3 4-9 11-8 33 5 28 16 30 15 98-20 39-20 73-37 76-37 13 0 5 37-17 74-17 29-36 45-84 66l-62 28-61-45c-55-41-64-45-93-36-27 7-32 14-35 43-2 32 2 38 48 70 93 65 88 60 55 58-16-1-45-3-62-5zm215-149c18-8 34-19 37-24 6-10-31-3-62 12-17 8-33 8-62-2-42-14-95-53-84-64 17-16-45-3-67 15l-25 21 34-6c34-6 101 17 101 35 0 5 9 9 21 9 11 0 17 5 14 10-10 16 58 12 93-6z" style="fill:url(#linearGradient105)"/><path id="path5" d="M1613 1528c-5-7-8-34-5-60 3-41 6-46 21-36 13 8 33 2 88-25 60-31 73-34 88-23 15 10 17 21 11 59-6 41-9 45-25 36-13-9-33-4-91 25-41 20-76 36-76 36-1 0-6-6-11-12zm60-48c17 0 107-44 107-52 0-12-38-10-45 2-3 6-15 10-26 10-10 0-19 5-19 10 0 6-9 10-20 10-14 0-20 6-19 23 0 12 3 16 6 10 2-7 10-13 16-13z" style="fill:url(#linearGradient106)"/><path id="path6" d="M1619 1406c-2-2-2-27-1-55 3-45 6-49 21-39 13 8 24 7 43-6 23-15 27-26 33-96l7-79 61-31c33-16 61-29 62-28 1 2 0 24-3 49-3 37-9 49-28 58-25 11-24 8-29 141 0 21-12 31-65 57-61 30-91 38-101 29zm85-56 43-19 12-76c10-72 27-115 43-115 5 0 8-5 8-12 0-9-3-9-12 0-7 7-20 12-29 12-14 0-18 14-24 73-7 68-9 74-51 115-50 48-50 50 10 22z" style="fill:url(#linearGradient107)"/><path id="path7" d="M1806 1361c-4-6-5-15-2-19 3-5 6-34 7-66 1-31 8-65 15-74 10-14 11-1 7 68-5 83-14 112-27 91z" style="fill:url(#linearGradient108)"/><path id="path8" d="M743 1333c-34-13 1-82 48-97 38-12 46-33 48-124l1-53 75-34c73-33 75-35 75-69 0-26-6-38-22-48-13-7-29-11-35-10-17 4-17 0 8-52l22-44 58 42c57 40 58 42 59 88 0 26-7 65-16 87-13 34-23 42-75 61-33 13-63 28-66 34-4 6-10 45-13 86l-5 75-65 32c-66 33-76 35-97 26zm130-70c5-3 6-10 4-17-9-23 12-128 30-148 10-11 41-31 70-44 50-23 52-26 58-72 3-26 8-55 9-64 4-18-37-52-55-46-6 2-1 15 10 30 27 34 27 82 0 109-12 12-45 32-74 45-37 16-54 29-53 41 0 10-2 43-5 73-5 46-11 59-39 83l-33 28 35-7c19-3 39-9 43-11z" style="fill:url(#linearGradient109)"/><path id="path9" d="M492 1273c-12-38-4-54 30-65 5-2 10-16 11-32 3-37-43-76-67-57-12 10-16 6-25-26-15-51-15-49 20-67 29-14 32-14 72 17 24 18 53 39 65 47 21 14 22 20 16 92l-7 77-48 26c-27 14-50 25-52 25s-9-17-15-37zm63-23c15-6 25-16 22-23-2-7-1-33 3-59 3-26 4-51 1-56-9-14-79-52-96-52-24 0-17 14 14 28 44 19 71 67 60 105-5 16-16 38-25 48-20 22-16 23 21 9z" style="fill:url(#linearGradient110)"/><path id="path10" d="M652 1267c-18-19-20-29-14-76l7-54 18 72c11 40 17 74 15 77-3 2-14-6-26-19z" style="fill:url(#linearGradient111)"/><path id="path11" d="M934 1253c3-21 6-56 6-78 0-36 4-42 41-63 22-13 43-22 45-19 2 2-9 31-25 63s-36 76-44 97c-9 20-19 37-23 37s-4-17 0-37z" style="fill:url(#linearGradient112)"/><path id="path12" d="M1633 1278c-6-8-7-36-2-73 4-33 8-84 8-113 1-46 3-52 17-44 12 7 37 0 88-23 52-25 75-31 88-24 36 19 23 34-72 83l-65 34-7 78c-8 85-29 115-55 82z" style="fill:url(#linearGradient113)"/><path id="path13" d="M770 1215c0-8 40-85 43-85 7 0-6 66-15 78-11 12-28 17-28 7z" style="fill:url(#linearGradient114)"/><path id="path14" d="M465 1179c-8-36-3-43 24-34 23 7 28 34 9 53s-26 15-33-19z" style="fill:url(#linearGradient115)"/><path id="path15" d="m570 1039-55-41 4-77c2-42 5-79 8-83 15-26 32 5 64 117 19 69 35 125 34 125 0 0-25-19-55-41z" style="fill:url(#linearGradient116)"/><path id="path16" d="M860 1024c0-2 10-24 22-49 23-48 50-64 73-45 26 22 16 38-40 68-30 17-55 28-55 26z" style="fill:url(#linearGradient117)"/><path id="path17" d="M1657 1023c-4-3-7-28-7-55 0-46 1-48 24-42 16 4 44-5 85-26 77-38 101-34 101 18 0 48-13 70-33 54-11-9-28-4-83 23-74 37-77 38-87 28zm85-63c23-11 47-20 54-20 6 0 14-6 17-14 4-10 0-12-16-7-41 13-107 46-107 53 0 12 7 10 52-12z" style="fill:url(#linearGradient118)"/><path id="path18" d="M413 1003c-9-22-8-60 2-154l8-76 46-24c25-13 49-25 52-27 4-1 10 10 13 25 4 15 9 35 12 44 3 11-3 19-20 23-22 5-25 12-31 83-8 100-5 93-43 109-29 12-34 12-39-3zm55-120c2-32 11-66 19-75 21-23 13-37-14-27-20 7-23 16-23 62 0 30-3 70-6 88-5 28-4 32 6 22 7-7 15-38 18-70z" style="fill:url(#linearGradient119)"/><path id="path19" d="M1098 906c-3-36-9-44-64-81l-62-41 34-73c19-41 34-75 34-77 0-1-15-5-32-7-32-4-32-4-9-12 14-5 48-20 76-34l52-26 60 41 59 41-15 34c-8 19-16 36-17 37-2 2-24-11-50-28-45-31-48-32-73-17-18 11-27 26-29 49-3 31 1 36 47 63 28 17 51 33 51 36 0 4-13 35-29 70l-29 64zm-8-105c-14-9-32-23-41-32-12-13-20-14-28-6s1 18 31 38c45 28 80 28 38 0zm110-158c-8-3-23-14-34-25-23-21-63-23-88-4-23 17-12 28 13 13 14-9 25-8 51 5 18 9 42 17 53 17 14-1 15-2 5-6z" style="fill:url(#linearGradient120)"/><path id="path20" d="M349 787c-19-70-32-127-28-127s11 4 14 10c18 29 43 29 104 0l62-29 9 25c6 14 10 27 10 29s-27 16-60 31c-65 29-67 33-72 138-3 48-4 45-39-77z" style="fill:url(#linearGradient121)"/><path id="path21" d="M1672 902c-7-2-12-23-12-54 0-44 2-49 19-43 10 3 30 0 44-6 23-10 26-19 32-93l7-82 61-32c33-17 62-30 63-29s0 24-3 51c-4 36-11 50-24 53-22 6-26 17-34 108l-7 70-67 31c-36 17-72 29-79 26zm65-53c6-6 19-12 29-13 16-2 21-17 30-77 10-75 27-119 44-119 6 0 10-5 10-11 0-10-38-3-53 10-4 4-11 40-16 80-8 62-14 78-39 100-16 15-35 25-42 23-7-3-10 0-6 7 9 14 29 14 43 0z" style="fill:url(#linearGradient122)"/><path id="path22" d="M1848 854c-4-3-5-20-3-37 3-18 7-53 10-79 10-78 24-54 18 30-5 74-13 99-25 86z" style="fill:url(#linearGradient123)"/><path id="path23" d="M1140 769c-14-11-33-27-43-35-20-16-19-33 4-47 10-7 26-1 54 17 22 15 41 29 43 30 4 5-20 56-27 56-3-1-17-10-31-21z" style="fill:url(#linearGradient124)"/><path id="path24" d="M1668 769c-2-6-1-37 3-68s8-80 8-109c1-48 3-53 20-47 11 3 28 2 38-4 98-52 121-60 138-47 29 21 12 41-64 76-77 36-76 33-86 134-3 32-8 63-11 67-8 13-42 11-46-2z" style="fill:url(#linearGradient125)"/><path id="path25" d="M334 642c-21-18-39-48-52-89-11-35-20-63-18-63 1 0 27 18 56 40s61 40 69 40c9 0 43-14 77-31l61-32 67 43c36 23 66 45 66 47 0 3-38 2-85-2-73-6-85-5-85 8s-97 68-119 67c-3 0-20-13-37-28zm113-39c16-10 21-19 13-21-6-2-17 1-23 7s-28 11-48 11c-40 0-61 15-32 23 25 7 61-1 90-20z" style="fill:url(#linearGradient126)"/><path id="path26" d="M910 623c-34-4-36-6-32-38 4-30 10-36 64-60 33-15 68-35 78-45 14-14 28-17 57-13 37 5 39 7 35 37-3 29-11 36-74 66-39 19-73 40-75 47-3 7-8 12-12 11-3-1-22-3-41-5zm58-52c9-5 28-14 42-20 36-17 64-40 58-46-8-8-128 54-128 66 0 11 6 11 28 0z" style="fill:url(#linearGradient127)"/><path id="path27" d="M807 613c-15-4-17-11-12-43l7-39-71-47c-39-26-71-49-71-51 0-12 120 12 143 29 28 19 30 19 60 3 26-13 43-15 90-8l59 8-76 34c-74 34-75 35-78 75-3 42-13 49-51 39z" style="fill:url(#linearGradient128)"/><path id="path28" d="M1241 606c-7-8-34-29-60-46l-48-30 4-53c4-50 49-177 63-177 23 0 29 29 24 106-7 80-6 82 19 99 20 13 30 14 46 5 27-14 26-6-8 58-23 46-29 51-40 38zm-1-56c0-5-11-20-25-34-19-20-25-36-26-73-1-62-17-29-18 37-1 39 3 47 27 62 32 19 42 21 42 8z" style="fill:url(#linearGradient129)"/><path id="path29" d="M683 593c-2-10-34-38-69-62-43-29-63-49-60-58 4-8 6-23 6-33 0-16 6-18 38-13 20 3 41 12 45 19 4 8 35 32 67 54 54 37 60 44 60 75 0 34-1 35-41 35-30 0-42-4-46-17zm47-38c0-8-3-14-7-13-8 3-37-19-74-54-9-9-20-13-24-10-3 4-10 0-15-8s-12-12-15-8c-10 10 43 57 109 95 26 16 26 16 26-2z" style="fill:url(#linearGradient130)"/><path id="path30" d="M330 509c-30-21-60-43-66-47-7-6-7-33 0-87 8-68 8-78-7-87-51-28-68-55-92-143-14-49-25-91-25-92 0-2 19-12 41-24 34-17 52-20 98-14l57 7 12 44c18 65 16 68-26 34-37-30-39-30-70-14-26 13-32 21-32 47 1 28 9 38 69 78l67 47-9 77c-9 76-9 78 14 96 29 22 48 23 73 4 11-8 38-15 61-15 41 0 41 1 37 31-4 27-13 35-71 61-36 17-68 32-71 33-3 2-30-15-60-36zm115-24c68-31 68-43-1-19-45 15-50 15-80-1-18-10-37-29-43-44-10-24-8-93 4-131 6-19-39-56-81-66-28-6-28-6 11 29l40 35v163l45 29c25 16 46 29 46 29 1 1 27-10 59-24zM245 42c-24-5-65 25-59 43 5 11 13 9 40-13 25-20 30-28 19-30z" style="fill:url(#linearGradient131)"/><path id="path31" d="M1701 522c-6-2-11-27-11-58 0-50 2-54 18-45 14 8 35 2 87-25 87-43 105-39 105 25 0 56-5 64-31 48-16-10-31-6-88 23-38 20-74 34-80 32zm49-50c0-4 23-16 50-26 45-16 68-32 59-40-2-2-34 10-71 27-65 29-85 47-53 47 8 0 15-4 15-8z" style="fill:url(#linearGradient132)"/><path id="path32" d="M1255 480c-4-7-4-47-1-89 7-75 6-77-18-91-28-14-32-30-15-61 10-19 10-19 36 1 33 26 36 26 115-14 37-19 70-31 73-26 14 22-28 72-78 95l-52 24-5 83c-5 76-7 83-27 86-11 2-24-2-28-8z" style="fill:url(#linearGradient133)"/><path id="path33" d="M1336 395c3-33 7-60 7-61 1 0 15-8 30-18 16-10 30-16 32-14s-15 37-36 78l-40 75z" style="fill:url(#linearGradient134)"/><path id="path34" d="M377 414c-3-4-3-42 0-86 6-79 6-80-23-104-16-13-46-34-66-46-40-23-52-61-23-72 13-4 63 21 100 52 15 12 69 228 62 247-6 15-38 21-50 9z" style="fill:url(#linearGradient135)"/><path id="path35" d="M1707 393c-4-3-7-28-7-55 0-44 2-49 19-43 10 3 30 1 44-4 22-9 26-17 32-80l7-71h62l61 1-27 22c-24 20-27 30-30 95l-4 73-68 35c-72 36-79 38-89 27zm86-58c32-6 35-10 41-52 3-25 6-60 5-77-1-30-1-30-9-6-5 14-11 42-15 64-4 26-12 40-26 43-10 3-19 9-19 14s-6 9-14 9-18 5-22 12c-5 7-2 9 9 5 8-3 31-9 50-12z" style="fill:url(#linearGradient136)"/><path id="path36" d="M219 338c-16-57-13-72 10-44 7 8 11 34 9 58l-3 43z" style="fill:url(#linearGradient137)"/><path id="path37" d="M1888 345c-8-8 13-149 24-160 7-7 9-2 4 15-3 14-6 53-6 88 0 55-6 72-22 57z" style="fill:url(#linearGradient138)"/><path id="path38" d="M1714 266c-3-7-4-40-2-72l3-59 34-3c28-3 33-1 27 13-3 9-6 36-6 60 0 56-41 101-56 61z" style="fill:url(#linearGradient139)"/><path id="path39" d="M1265 218c-11-6-22-12-24-14-5-4 32-84 40-84 4 0 9 6 12 13 3 9 14 6 43-10 33-18 49-21 101-16l61 6-16 33c-11 24-21 33-32 29-9-3-47 8-83 25-75 34-74 34-102 18zm96-52c45-21 49-25 27-25-15-1-29 3-33 8-3 5-19 12-35 16-17 4-28 11-24 16 7 12 3 13 65-15z" style="fill:url(#linearGradient140)"/></g><g id="charts" fill="#000" stroke="none" style="opacity:1;fill:url(#linearGradient18);fill-opacity:1;fill-rule:nonzero" transform="matrix(.07565 0 0 -.07565 283.36755 333.21024)"><path id="path1-3" d="M1387 2350c-327-55-596-294-688-612-29-100-37-314-16-414 43-201 161-390 320-510 73-56 216-125 307-150 100-28 320-26 422 3 303 87 520 301 609 599 30 100 37 285 15 395-71 348-350 624-690 684-94 16-200 18-279 5zm293-85c327-76 564-337 611-671 10-74 4-254-9-254-3 0-14 8-24 17-17 15-20 15-28 3-6-10-2-23 15-40 23-24 34-60 18-60-4 0-17 12-28 26-30 38-54 26-125-61-64-78-114-125-134-125-18 0-53 40-110 127-28 43-59 79-68 81-11 2-26-12-44-40-36-59-74-98-95-98-20 0-63 48-101 113-15 26-32 47-37 47-11 0-20-11-134-165-72-96-166-195-186-195s-72 53-103 105l-32 54-33-30c-19-16-37-29-42-29-4 0-29 14-55 31-35 24-54 30-75 26-39-8-51 20-15 33 35 14 36 14 85-20 54-36 65-37 96-4 30 32 51 28 80-16 56-86 76-110 92-110 24 0 80 61 184 202 47 62 94 121 105 132 35 30 62 15 110-64 28-44 50-70 61-70s33 23 54 55c20 30 48 62 61 70 41 27 55 14 150-137 23-38 42-58 55-58 11 0 39 24 67 58 26 31 65 75 85 97 37 39 38 41 28 84-5 24-19 66-31 94l-21 49-18-33-17-34-11 28c-6 16-15 26-20 23s-12 11-16 32c-9 52-97 312-105 312-4 0-13-26-20-57-7-32-25-93-41-136s-29-87-29-98c0-21-20-27-20-6 0 6-9 1-20-13-10-14-20-23-22-20s-14 28-27 55l-24 50-15-33-16-32-33 72c-30 64-35 70-47 53-11-16-17-5-51 94-21 62-42 114-45 116-4 3-37-83-73-191l-65-195-20 27-19 28-27-43c-34-53-43-76-51-125-8-50-15-40-56 84-17 52-35 98-38 103-4 4-17-36-30-88-18-75-26-93-36-85-9 8-16 3-25-20-12-28-14-30-30-15-14 13-19 13-22 3-3-7-8 5-12 27-12 64-18 63-40-6-16-48-25-63-38-61-9 1-19-2-23-8-11-17-23-11-29 15-4 14-10 25-14 25s-26-18-47-40-42-40-46-40c-14 0-32 176-26 260 25 343 257 623 587 709 93 25 257 27 350 6zm-150-522c0-22 26-67 62-105 18-20 44-50 57-67 14-19 30-31 41-29 10 2 32-9 48-25 28-27 29-27 65-12 41 17 51 32 87 128 14 37 30 69 35 70 6 1 26-47 46-107 37-113 68-156 110-156 21 0 39-35 39-76 0-25-114-170-132-168-4 1-12 2-16 3-4 0-29 34-56 74-26 41-61 81-77 91-51 30-102 5-154-76-9-16-21-28-25-28-5 0-20 20-34 44-50 86-109 108-163 62-16-13-62-70-103-125-66-91-77-101-99-96-26 7-81-11-81-26 0-12 17-11 25 1 9 15 51 12 65-5 15-18-1-20-18-3-10 10-18 9-40-4l-28-17-48 49c-53 55-75 60-121 30l-29-19-42 24c-59 34-97 33-134-6l-30-32-20 46c-11 25-23 60-26 79-6 27-4 31 7 21 19-19 47-16 80 7 22 16 33 19 48 11 27-15 75-3 101 24 18 19 29 22 61 18 38-5 43-3 89 45l49 51 23-41c33-59 52-68 77-37 11 13 23 37 27 54 11 49 33 75 65 75 33 0 52 24 74 95 48 153 67 196 81 184 8-6 14-18 14-26zm55-559c25-32 33-50 16-40-5 4-21 2-34-3-14-6-53-7-87-3l-62 7 47 64 48 65 23-30c13-16 35-43 49-60zm644 57c17-17 20-17 35-3 25 26 31 5 13-46-85-229-301-422-553-494-112-32-294-32-414 1-125 33-248 102-343 190-72 68-144 159-160 204-6 15-4 16 13 7 10-5 25-8 32-5s37-9 67-26l53-31-23-24c-12-13-17-24-11-24s13 4 16 9c4 5 41 8 84 6 96-4 92-3 92-15 0-7-6-7-20 0-14 8-26 8-40 0-15-8-30-8-54 1-28 10-37 9-56-4-23-16-23-16 26-17 99-1 134-5 134-15 0-5-16-13-37-16-64-10-23-14 236-21 97-2 135 0 138 9 3 8-24 11-96 11-56-1-104 2-109 6-16 17 28 32 84 29 33-2 75-3 94-2 19 0 94 0 165-1 72 0 149-1 172 0 23 0 45-4 48-10 4-6-7-10-27-9-18 1-61-3-95-9s-71-8-82-5c-30 8-96-6-84-18 6-6 19-6 36 0 19 7 34 7 51 0 16-8 30-8 42-1s25 6 41-1c18-8 27-6 43 8 17 15 24 16 47 6 18-8 29-9 37-1 13 13 49 13 63-1s101-20 109-8c3 5 18 9 35 9 16 0 29 5 29 10 0 7-25 9-75 4-47-4-79-3-87 4-7 5-22 12-33 15-12 3-7 5 15 6 19 1 41 5 49 10 12 8 44 3 114-19 23-7 32-4 55 17 21 19 23 23 7 17-29-11-104-5-138 10-11 5-28 4-42-4-13-7-34-10-46-7s-31 2-41-4c-12-6-25-6-38 1-14 8-26 8-41 0-16-9-26-8-45 5-20 13-28 14-40 5-8-8-27-10-46-6-18 4-42 6-53 6-11-1-40-1-64-1s-53-5-64-10c-14-8-26-8-43 2-19 10-29 10-47 0-19-10-28-9-52 4l-30 17 33-6c19-3 42-1 52 4 13 7 27 6 44-1 19-9 32-9 55 0 21 9 35 10 50 2 14-8 27-8 45 1 20 8 32 8 52-1s34-9 59 1c23 8 38 8 47 1 18-13 188-10 214 4 16 9 26 9 46-1 15-8 31-10 39-6 7 5 21 3 31-4 14-10 26-10 53-2 19 6 35 13 35 16 0 9-141 14-315 12-130-2-155-2-185-1-47 2-75 2-178-1-56-2-105 0-109 3-3 4 2 15 11 26 16 18 39 22 114 22 17-1 43-1 57-1 44 1 94 0 123 0 15-1 70-1 122 0s127-1 167-4c43-4 74-2 78 4s35 7 78 4c57-5 76-3 92 10 19 15 19 15 1 16-11 0-34-5-51-11-26-10-36-8-65 10-39 23-33 27 16 9 27-9 38-9 58 1 14 8 32 11 40 8 9-4 16-1 16 5 0 7-17 9-50 5-61-7-65 5-17 60 17 21 37 43 42 50 14 18 32 16 54-6zm-394-28c33-49 32-58-10-70-31-10-76-4-104 14-6 4 70 93 79 93 5 0 21-17 35-37zm-335-95c15-10 26-10 52 0 25 9 39 9 65 0s40-9 66 0c42 15 70 15 85 0 9-9 21-8 51 2 29 9 44 10 53 2 7-5 24-12 38-14 22-4 23-5 6-13-12-5-28-2-45 8-23 13-29 13-54 1-24-13-31-13-57 2-28 17-31 17-64-1-31-17-39-17-75-5-34 11-45 11-66 0-19-10-30-10-54 0-25 10-37 10-60 0-22-9-34-9-51 0-12 6-19 14-17 17 3 2 14 0 25-6 14-8 24-7 38 4 24 18 39 18 64 3zm-432-76c5-15-23-26-45-17-17 6-17 7 2 21 21 16 37 14 43-4z" style="fill:url(#linearGradient37);fill-opacity:1;fill-rule:nonzero"/><path id="path2-6" d="M1751 2031c-19-12-6-43 16-39 10 2 18 12 18 22 0 22-14 29-34 17z" style="fill:url(#linearGradient38);fill-opacity:1;fill-rule:nonzero"/><path id="path3-7" d="M1212 2018c-16-16-15-23 4-42 21-22 56-3 52 27-3 25-37 34-56 15z" style="fill:url(#linearGradient41);fill-opacity:1;fill-rule:nonzero"/><path id="path4-5" d="M1034 1835c-4-9-2-21 4-27 16-16 47-5 47 17 0 26-42 34-51 10z" style="fill:url(#linearGradient42);fill-opacity:1;fill-rule:nonzero"/><path id="path5-3" d="M1840 920c-8-6-31-8-51-4-22 3-40 1-43-5-5-7-39-9-91-7-69 4-156-6-135-14 17-7 216-8 224-1 11 8 91 7 196-3 46-5 59-2 80 15l25 21-25-7c-51-13-129-13-141 1-14 17-19 17-39 4z" style="fill:url(#linearGradient43);fill-opacity:1;fill-rule:nonzero"/><path id="path6-5" d="M1060 899c17-14 32-19 50-14 14 3 30 5 35 5 6 0 75-3 153-5 139-5 182 2 182 26 0 6-10 3-22-5-14-10-27-12-38-6-10 5-39 6-67 1-28-4-61-4-73 1-13 5-37 6-53 2-17-3-39-1-53 7-20 10-29 10-49-1-19-10-30-11-50-2-38 17-43 14-15-9z" style="fill:url(#linearGradient44);fill-opacity:1;fill-rule:nonzero"/></g><g id="g18" fill="#000" stroke="none" style="fill:url(#linearGradient19)" transform="matrix(.04254 -.0178 -.0178 -.04254 444.22213 703.30812)"><g id="g101" style="fill:url(#linearGradient101)" transform="rotate(53.906064 3008.1055161 1740.5333) scale(2.15855)"><path id="path1-1" d="M1408 2571c-172-180-231-279-232-386-1-137 71-237 262-366 233-158 277-207 276-309 0-69-36-151-94-214-39-42-45-45-98-48l-57-3 74-44 74-44 54 59c158 175 198 308 130 440-35 67-109 135-262 242-72 49-151 112-177 140-111 119-84 223 111 425 111 116 120 131 94 166-38 50-61 41-155-58zm117 22c0-6-36-50-80-98-155-169-204-263-185-352 24-106 77-160 300-308 92-61 180-147 205-200 30-60 27-161-5-220-30-55-43-59-24-7 21 58 18 155-7 207-27 57-74 99-234 210-224 156-279 227-277 357 1 49 7 79 25 115 36 69 104 157 187 241 65 66 95 83 95 55z" style="fill:url(#linearGradient45)"/><path id="path2-2" d="M1153 2633c-19-7-16-50 4-57 24-10 51 20 37 41-12 19-23 24-41 16z" style="fill:url(#linearGradient46)"/><path id="path3-70" d="M1853 2633c-18-7-16-50 2-57 36-14 61 24 33 52-13 13-16 13-35 5z" style="fill:url(#linearGradient47)"/><path id="path4-9" d="m1558 2509-27-29 67-68c87-88 116-146 116-232 1-78-29-140-102-215l-47-47 34-27 34-28 54 56c29 31 69 88 89 128 34 66 36 77 33 145-5 97-37 160-134 266-42 45-80 81-83 81-4-1-19-14-34-30z" style="fill:url(#linearGradient48)"/><path id="path5-36" d="M1443 2397c-25-27-4-38 68-35 56 3 64 5 64 23 0 17-8 21-58 25-47 4-61 2-74-13z" style="fill:url(#linearGradient49)"/><path id="path6-0" d="M1347 2284c-13-13-7-42 9-48 24-9 297-7 312 3 8 5 12 17 10 27-3 18-16 19-164 22-88 1-163-1-167-4z" style="fill:url(#linearGradient50)"/><path id="path7-6" d="M1343 2163c-18-7-16-40 3-47 9-3 84-6 169-6 123 0 155 3 165 15s10 18 0 30-41 15-169 14c-86 0-162-3-168-6z" style="fill:url(#linearGradient51)"/><path id="path8-2" d="M1410 2032c0-5 8-17 19-26 15-14 35-16 102-14 76 3 84 5 84 23 0 19-8 20-102 23-57 1-103-1-103-6z" style="fill:url(#linearGradient52)"/><path id="path9-6" d="M1368 1698c-261-264-241-414 82-610 209-128 270-190 270-279 0-64-40-126-175-273-63-70-115-133-115-141 0-23 37-55 63-55 17 0 52 29 118 98 115 118 170 189 205 266 23 50 26 68 22 125-9 127-67 192-315 354-192 126-218 155-218 237 0 49 5 65 39 115 59 89 141 163 184 167l36 3-57 38-57 37zm-93-209c-20-55-18-96 4-144 29-63 66-93 292-238 304-194 306-347 12-647-66-67-86-82-93-70-12 19-7 26 70 107 100 104 178 210 191 256 33 124-29 211-251 348-120 74-182 122-218 167-58 73-65 117-31 206 25 64 46 77 24 15z" style="fill:url(#linearGradient53)"/><path id="path10-1" d="M1435 1610c-10-11-15-23-12-27 5-5 167-8 220-4 5 1 7 11 5 24-3 21-8 22-99 25-85 2-97 1-114-18z" style="fill:url(#linearGradient54)"/><path id="path11-8" d="M1344 1485c-12-31 7-35 171-35 165 0 180 3 167 38-7 19-331 17-338-3z" style="fill:url(#linearGradient55)"/><path id="path12-7" d="M1364 1365c-3-8-3-22 0-30 5-13 26-15 133-13l128 3v50l-128 3c-107 2-128 0-133-13z" style="fill:url(#linearGradient56)"/><path id="path13-9" d="M1371 985c-87-94-122-163-122-239 0-77 27-131 108-216l68-71 45 45 44 46h-31c-23 0-40 10-72 46-73 78-90 157-51 234 29 57 138 170 164 170 16 0 9 8-26 30-27 17-50 30-52 30s-36-34-75-75z" style="fill:url(#linearGradient57)"/><path id="path14-2" d="M1452 921c-8-5-12-17-10-27 3-17 14-19 97-22 102-3 128 6 110 39-8 16-21 19-97 19-48 0-93-4-100-9z" style="fill:url(#linearGradient58)"/><path id="path15-0" d="M1382 801c-8-5-12-17-10-27 3-18 15-19 158-19s155 1 158 19c2 10-2 22-10 27-7 5-74 9-148 9s-141-4-148-9z" style="fill:url(#linearGradient59)"/><path id="path16-2" d="M1404 665c-11-29 7-35 105-35 74 0 102 4 111 15 23 27 0 35-106 35-82 0-106-3-110-15z" style="fill:url(#linearGradient60)"/><path id="path17-3" d="M1150 415c-19-23-8-50 20-50 18 0 26 6 28 22 4 29-30 49-48 28z" style="fill:url(#linearGradient61)"/><path id="path18-7" d="M1844 406c-10-26 4-48 28-44 17 2 23 10 23 28s-6 26-23 28c-13 2-25-3-28-12z" style="fill:url(#linearGradient62)"/></g></g><g id="leaf" fill="#000" stroke="none" style="fill:url(#linearGradient10)" transform="matrix(.05182 -.06918 -.06918 -.05182 210.99555 527.11655)"><path id="path1-9" d="M1485 2365c-3-11-23-62-42-114-64-167-63-215 2-309l34-50-8-119c-5-67-4-192 2-288 20-352 11-765-19-868-5-15-1-18 18-15 22 3 24 9 36 118 13 114 12 211-4 892l-7 258 43 71c65 106 65 140 2 309-37 98-52 129-57 115zm46-191c26-74 22-147-10-193-13-18-28-30-34-28s-22 23-35 48c-19 36-22 53-17 89 8 53 33 129 48 148 14 18 24 5 48-64z" style="fill:url(#linearGradient28)"/><path id="path2-22" d="M1331 2097c-24-29-41-89-41-144 0-75 31-141 98-213l51-55 1 56c0 68-22 145-63 217-23 42-31 67-30 104 1 53 0 54-16 35zm40-211c20-45 25-81 9-71s-50 82-50 105c0 30 19 15 41-34z" style="fill:url(#linearGradient29)"/><path id="path3-8" d="M1635 2062c0-36-10-67-43-132-35-69-45-100-51-165-4-44-7-81-6-83 9-10 101 104 128 158 41 82 44 163 7 228-13 23-26 42-29 42s-6-21-6-48zm-6-203c-22-49-39-63-39-34 0 9 12 39 27 68 35 67 46 37 12-34z" style="fill:url(#linearGradient30)"/><path id="path4-97" d="M1186 1910c-9-22-16-69-16-104 0-91 41-168 128-244 36-31 86-76 110-100l45-42-7 62c-10 96-42 154-129 233-94 85-110 114-106 183 2 29 1 52-2 52-4 0-14-18-23-40zm122-238c59-58 93-114 79-128-9-9-98 69-125 109-34 48-48 87-33 87 5 0 41-31 79-68z" style="fill:url(#linearGradient31)"/><path id="path5-361" d="M1778 1910c7-69-6-91-102-185-102-99-127-145-140-258l-6-57 48 47c27 27 79 75 117 108 87 76 125 150 125 242 0 58-23 143-39 143-4 0-5-18-3-40zm-28-225c-30-62-160-176-160-140 0 14 40 83 62 105 45 47 113 100 116 90 2-6-6-30-18-55z" style="fill:url(#linearGradient32)"/><path id="path6-2" d="M985 1623c16-128 72-241 160-322 28-26 89-63 154-93 58-28 120-61 138-74l31-24-5 43c-7 58-39 151-67 195-39 62-108 117-214 172-72 36-114 65-142 97-22 25-40 50-40 54 0 5-5 9-11 9-7 0-8-19-4-57zm174-132c127-68 181-115 220-193s40-92 4-84c-63 15-178 80-228 130-48 48-115 161-115 193 0 18-6 20 119-46z" style="fill:url(#linearGradient33)"/><path id="path7-9" d="M1957 1624c-35-39-75-68-149-106-57-30-122-73-148-98-54-53-105-153-115-225-4-27-9-59-12-70-5-19-5-19 18 2 13 11 78 47 143 78 91 44 131 69 173 110 82 82 151 245 141 333l-3 29zm-7-91c0-35-50-124-97-174-57-61-103-92-195-130-65-27-68-27-68-8 0 39 54 131 104 176 28 25 80 60 116 78 36 19 79 43 95 54 38 25 45 25 45 4z" style="fill:url(#linearGradient34)"/><path id="path8-3" d="M955 1250c11-56 65-149 109-187 57-49 144-87 257-112 53-11 109-25 123-31 25-9 27-8 21 12-16 52-39 90-80 127-58 53-108 78-212 102-116 26-159 46-195 88l-30 36zm198-124c53-13 120-37 149-53 52-30 97-77 86-89-11-11-157 25-210 52-51 25-128 89-128 106 0 10-7 11 103-16z" style="fill:url(#linearGradient35)"/><path id="path9-1" d="M2025 1256c-27-40-75-64-185-91-56-14-120-35-142-46-57-29-124-94-148-143-27-58-26-68 6-56 14 6 65 19 112 29 170 37 259 86 318 176 33 49 69 143 60 153-3 2-12-8-21-22zm-84-125c-16-29-71-72-126-97-62-28-168-56-198-52-20 3-19 6 20 45 51 51 105 77 215 102 106 24 100 24 89 2z" style="fill:url(#linearGradient36)"/></g><g id="notepad" fill="#000" stroke="none" style="fill:url(#linearGradient1);fill-rule:nonzero" transform="matrix(.02381 .00726 .00726 -.02381 572.66061 179.21164)"><path id="path1-7" d="M2906 6772c-2-4-6-53-7-107-2-55-8-103-14-107-12-9-106-10-157-2-28 5-38 11-38 25 0 11 5 19 12 19 6 0 4 8-6 19-13 15-23 17-44 10-15-4-54-12-87-16-45-6-61-12-63-25-2-12 6-22 25-29l28-11-29-15c-35-18-24-32 36-43 90-17 98-24 98-80 0-80 17-58 23 31 3 44 8 84 12 87 9 9 150 15 180 8 25-6 25-8 25-110v-103l-67-6c-38-3-90-1-118 3-61 9-158-3-191-25-34-22-22-35 32-35 52 0 59-16 9-26-71-13-74-63-3-65 88-2 92-6 98-87 3-40 1-77-5-83-5-5-28-9-51-9-59 0-94-15-94-40 0-17 6-20 51-20 63 0 63-22 1-31-23-3-44-8-47-11-14-13 10-38 41-43 19-3 50-7 69-10l35-6v-78c0-89-2-91-75-91-56 0-75-8-75-30 0-14 11-20 43-25 23-3 56-9 72-12l30-6-25-8c-14-4-44-7-67-8-43-1-63-15-46-32 5-5 38-15 72-21 35-7 65-17 66-22 2-6 7-29 11-51 8-40 8-40 14 24 8 67 18 81 59 76 14-2 57-4 94-4l68-1-2-150-3-150h-101c-56 0-104 3-107 6s-1 18 5 35c17 43-5 61-58 49-22-5-58-13-80-17-25-5-40-13-40-23s12-16 40-18c63-4 108-13 100-20-4-4-37-9-73-12-50-4-67-9-67-20 0-10 22-20 70-31l70-16 3-59c4-83 22-94 22-13 0 114-3 110 114 107l101-3v-300l-92-3c-51-1-101 1-110 6-24 11-178 0-177-13 0-11 30-21 86-30 41-6 72-30 65-50-3-6-1-18 4-26 6-10 9-3 9 22 0 63 13 70 120 67l95-3 3-117c2-90 0-118-10-119-7-1-53 0-103 1-71 1-93 5-103 18s-15 14-21 4c-4-7-38-15-75-19-76-7-86-26-15-31 62-3 91-11 84-22-3-6-23-10-43-11-90-2-122-33-45-45 86-12 87-13 99-95l11-74 2 72c0 40 6 83 12 97 9 20 9 29-2 42-11 14-10 18 6 30 15 11 44 14 110 12l90-3v-310l-87-3c-96-3-128 7-129 41v22l-16-22c-10-16-26-23-47-23-58 0-106-12-106-26 0-9 13-14 38-15 37 0 121-15 112-19-3-1-34-7-70-14-47-8-66-16-68-28-3-13 8-18 55-23 87-9 86-9 84-103-1-53 2-82 8-82 7 0 11 32 11 85 0 73 3 86 19 95 23 12 170 13 189 1 10-6 13-42 10-157l-3-149-80-3c-44-2-91 0-104 3-21 5-23 10-18 42 8 48-7 76-36 67-12-4-49-10-82-13s-59-10-58-16c1-5 25-14 52-19 28-5 51-13 51-17 0-5-25-16-55-25-76-24-70-40 17-48 39-3 74-9 77-11 10-11 0-180-12-187-7-4-33-8-59-8-86 0-98-16-41-51 20-13 32-24 27-25s-21-5-36-8c-47-11-34-33 25-41 88-12 97-22 97-114v-79l-31-6c-17-3-46-6-63-6s-38-5-46-10c-13-9-12-13 8-29 29-25 28-35-5-50-34-15-20-30 39-41 23-5 56-13 71-19 28-11 28-12 25-88-3-86-2-85-90-98-66-10-88-55-28-55 41 0 46-18 8-28-23-6-33-14-33-27 0-22 23-31 98-40l47-6v-158l-47-6c-75-9-98-18-98-40 0-13 10-21 34-28 26-6 31-11 20-18-8-5-24-9-36-9s-24-4-27-9c-9-14 16-29 77-45 32-8 61-17 65-20 13-8 4-128-10-138-19-11-79-28-105-28-30 0-38-18-18-40 15-17 15-20 0-44-20-30-18-31 68-41 56-6 60-9 75-43l15-37 8 33c4 19 11 38 16 43 6 6 52 8 104 7l94-3v-90l-80-3c-44-2-84-7-88-11-39-39 242-47 1953-55 1090-5 1272-4 1315 8 28 8 87 22 133 30 95 18 125 32 167 76l30 31-1 627c0 345-1 1357-2 2250l-2 1623-39 42-40 42-1665 3c-915 1-1667-1-1670-6zm117-186c9-23-9-39-37-32-30 7-34 30-9 44 19 11 39 6 46-12zm1511-152c9-8 16-19 16-24 0-10-29-40-38-40-34 1-52 15-52 40 0 40 44 54 74 24zm549-153c5-5 11-26 14-47 7-58-24-94-81-94-64 0-100 53-77 113 19 49 106 66 144 28zm-2185-23 3-28h-105c-109 0-123 6-104 43 8 15 21 17 106 15l97-3zm117 12c24-26 13-50-24-50-35 0-45 20-25 49 19 26 26 26 49 1zm543-13c4-35-33-53-60-29-33 28-13 65 32 60 19-2 26-10 28-31zm-660-164-3-108-94-3c-60-2-98 1-107 9-15 12-20 119-8 178l7 31h208zm0-162c6-39-9-44-112-36-90 7-96 9-96 29 0 37 14 41 112 36 89-5 93-6 96-29zm1332 20 45-8-40-6c-22-4-60-12-85-19-25-6-72-14-105-18-60-7-71-10-195-49-206-65-360-153-480-275-96-98-154-87-74 14 73 93 183 177 312 240 79 38 135 59 190 71 24 5 48 12 54 15 10 6 270 41 313 42 11 0 40-3 65-7zm-1205-25c16-12 17-16 6-30-17-20-55-21-71-1-10 12-10 18 0 30 16 19 40 19 65 1zm2423-23c3-31 1-33-27-33-34 0-51 31-30 56 22 26 54 13 57-23zm-2550-140-3-108-94-3c-60-2-98 1-107 9-15 12-20 119-8 178l7 31h208zm3031 81c26-34 27-58 0-85-28-28-76-22-102 12-15 21-17 31-8 47 31 58 77 68 110 26zm-1180-3c17-11 6-31-18-31-25 0-33 11-20 27 13 15 19 16 38 4zm340-212c41-40 41-80 2-120-85-85-207 36-124 123 37 39 82 38 122-3zm-2087 9c-9-9-15-9-24 0s-7 12 12 12 21-3 12-12zm-104-40c2-16 0-28-5-28-194-12-220-7-202 38 8 22 13 23 106 20l98-3zm1467 12c-92-24-167-40-192-40-15 0-68-12-118-26-49-14-104-29-122-33-30-8-195-87-238-114-89-55-194-153-255-236-56-76-90-97-90-56 0 28 74 136 143 208 158 164 351 257 607 292 106 14 315 18 265 5zm-1351-6c20-8 21-40 1-48-17-6-65 9-65 22 0 24 33 38 64 26zm2861-144c9-27-1-40-30-40s-39 13-30 40c4 13 15 20 30 20s26-7 30-20zm-2045-139c0-6-11-16-24-23-153-82-318-260-406-440-13-27-29-48-37-48-18 0-17 61 1 97 8 15 17 35 20 43 24 65 150 211 241 278 89 67 205 119 205 93zm-811-48c15-33 0-49-46-44-16 1-17 43-1 59 19 19 34 14 47-15zm1124 12c-1-5-13-11-25-13-13-2-38-9-55-17-18-8-50-23-70-32-43-19-155-83-163-93-3-3-25-20-50-37-62-42-164-152-226-243-52-78-77-93-83-50-9 67 141 255 274 344 86 58 217 119 282 131 18 4 35 11 39 16 8 13 80 7 77-6zm1067-130c0-31-26-43-47-22s-9 47 22 47c20 0 25-5 25-25zm575 5c35-38-3-91-54-75-28 9-35 40-15 70s44 32 69 5zm-1251-119c7-11-58-29-148-41-42-5-85-14-96-20-10-5-26-10-35-10-31 0-199-90-263-141-78-62-143-144-186-234-50-105-57-130-72-249-11-92-11-126 1-222 8-62 19-122 24-133 6-11 11-28 11-38 1-29 83-186 132-249 165-214 402-324 694-324 66 0 137 5 159 11 22 5 60 14 85 18 94 19 230 80 322 145 68 47 86 43 31-8-61-57-235-166-265-166-6 0-24-6-41-14-136-58-393-69-565-25-182 46-375 175-487 324-41 55-50 70-88 150-65 138-97 276-97 427 0 237 63 405 215 567 76 82 213 164 330 199 101 29 328 52 339 33zm-1516-103c16-16 15-23-4-42-12-12-20-13-35-6-19 10-26 40-12 53 10 11 38 8 51-5zm1661-74c193-57 329-165 407-324 117-238 42-535-168-672-85-55-131-68-246-68-93 0-107 3-168 31-64 31-164 115-164 139 0 6-7 18-15 26-17 18-20 44-5 44 6 0 13-8 17-17 10-30 98-108 149-133 65-32 231-41 291-15 108 47 156 85 211 166 90 133 98 341 19 482-52 94-139 178-227 219-88 40-115 48-197 53-134 9-246-13-348-68-16-9-39-20-50-25-27-13-175-160-175-174 0-6-6-19-13-27-16-19-39-76-61-150-37-123-6-329 67-446 59-95 158-197 222-231 121-63 170-84 191-84 8 0 37-7 64-16 61-20 371-17 392 4 6 6 27 12 46 12 43 0 38-24-6-28-17-2-36-10-42-18-7-8-24-14-39-14-14 0-51-7-81-15-105-28-247-19-400 26-35 11-176 76-195 91-87 67-185 169-206 213-6 11-17 34-26 50-33 60-55 132-71 225-13 81-13 108-3 184 15 102 50 196 105 278 39 60 137 157 183 182 89 48 165 80 222 96 88 23 247 25 320 4zm1299-116c18-18 15-43-8-63-17-15-24-16-45-7-43 20-28 82 20 82 12 0 26-5 33-12zm-708-63c0-7 7-15 15-19 8-3 15-14 15-24 0-11 7-25 15-32s15-18 15-25c0-8 6-26 14-42 35-71 46-132 46-250 0-130-10-175-62-278-50-99-97-154-193-226-137-104-246-139-425-139-204 0-360 61-488 191-109 109-157 254-133 397 7 42 19 86 27 97 8 10 14 28 14 37 0 27 138 161 190 185 76 34 154 53 211 52 53-1 128-15 99-18-159-18-217-36-307-94-63-41-112-98-147-172-28-58-29-233-1-295 93-214 373-344 643-300 87 14 152 39 255 97 49 28 141 120 180 181 60 95 76 143 93 277 7 52-17 219-36 254-5 11-10 28-10 39s-7 25-15 32-15 22-15 33-7 25-17 32c-9 7-13 17-9 24 9 14 26 5 26-14zm-2253-81c7-18-12-64-27-64s-34 46-27 64c4 9 16 16 27 16s23-7 27-16zm1723-234c59-46 80-88 80-154 0-63-28-119-74-149-61-40-98-6-48 46 16 18 37 47 47 66 16 31 16 36 0 77-22 57-65 84-134 84-50 0-55-3-102-51-49-50-49-51-49-117s11-96 50-133c30-29 101-59 139-59 21 0 54-3 72-7 33-7 33-7 9-14-14-4-53-7-86-8-92-1-176 41-222 113-22 34-26 52-26 111 1 82 27 140 86 188 46 37 87 47 161 42 46-4 67-11 97-35zm947 24c6-16-19-44-39-44-12 0-21 28-14 45 7 20 45 19 53-1zm-2671-130c5-26 3-39-7-45-24-15-44-5-47 24-5 39 4 57 27 57 15 0 22-9 27-36zm-118-16c3-26 3-26-81-33-97-8-123-3-131 27-8 33 9 38 114 36 95-3 95-3 98-30zm631-203c3-69 51-226 102-331 72-147 237-335 351-400 56-31 170-84 182-84 22 0 106-38 106-48 0-5-7-15-15-22-11-9-27-9-72 0-64 13-73 16-153 54-98 47-190 114-276 202-56 57-134 162-134 180 0 4-6 15-14 23-15 18-65 146-91 235-18 64-25 252-9 277 10 17 21-22 23-86zm2526-116c9-28-16-53-44-44-20 6-29 43-14 58s52 6 58-14zm-3037-11c15-15-3-38-29-38-22 0-33 16-25 35 7 18 37 20 54 3zm-120-180 3-118h-105c-99 0-104 1-110 23-8 31-8 202 1 211 4 4 52 5 107 4l101-3zm3076-141c-19-32-27-37-40-26-17 14-18 46-1 52 18 7 49-12 41-26zm-2962-2c9-21 9-29-3-40-13-13-18-13-34-1-17 12-18 17-7 40 15 33 29 33 44 1zm-112-18c0-7-5-18-11-24-8-8-8-17 0-31 6-11 11-68 11-126v-106h-100c-100 0-101 0-111 28-6 16-8 61-4 112 3 47 6 102 6 123l1 37h104c79 0 104-3 104-13zm720-267c0-29 221-200 257-200 7 0 13-7 13-15 0-34-79-8-158 51-46 34-69 58-110 110-35 46-40 64-17 64 8 0 15-5 15-10zm2056-16c9-36-25-71-54-55-24 13-32 32-25 60 4 16 13 21 39 21 28 0 35-4 40-26zm-2664-28c14-31 4-56-22-56-16 0-20 6-20 33 0 52 23 64 42 23zm-114-23c-3-16-16-18-103-18s-100 2-103 18c-3 15 7 17 103 17s106-2 103-17zm962-33c0-4 11-11 25-14 14-4 25-11 25-16 0-6 10-10 23-10 12 0 31-7 41-15 11-8 29-15 40-15 12 0 30-7 40-15 11-8 34-15 52-15 38 0 64-9 64-21 0-15-113-10-134 6-11 8-30 15-42 15-13 0-26 5-29 11-4 5-17 15-28 20-33 15-60 32-84 54-26 22-30 37-8 29 8-4 15-10 15-14zm-965-32c3-13 5-68 3-123l-3-100-90-3c-49-1-96 2-104 7-20 13-28 170-11 211l12 30h94c89 0 94-1 99-22zm665-206c0-26-11-34-27-21-20 17-16 39 7 39 13 0 20-7 20-18zm-662-74 3-28h-105c-104 0-106 0-106 23 0 13 3 27 7 31s50 5 103 4l95-3zm117 2c0-18-6-26-22-28-20-3-23 1-23 28s3 31 23 28c16-2 22-10 22-28zm2469 21c9-14-4-41-20-41-8 0-14 10-14 25 0 25 23 35 34 16zm-1111-92c16-26 1-49-33-49-27 0-30 3-30 29 0 41 41 54 63 20zm-1475-93c1-55-2-104-7-109-6-6-6-18 1-32 7-16 7-29-2-45s-9-25-1-33c7-7 11-53 11-114 0-101 0-103-25-109-29-7-171-2-179 7-3 3-9 47-12 97-8 104-1 121 50 123 29 2 29 2 4 6-41 6-53 27-35 61 12 26 12 30-2 39-12 8-17 31-20 97-1 47 0 93 3 101 5 13 24 15 108 13l103-3zm1917-37c5-15 1-28-14-42-17-18-24-19-46-9-16 8-25 20-25 35 0 31 7 37 46 37 24 0 34-5 39-21zm-1801-94c8-22-4-47-21-41-8 3-17 6-19 6s-4 11-4 25c0 18 5 25 19 25 10 0 21-7 25-15zm4-348c2-12-3-17-17-17-12 0-21 6-21 13 0 31 32 34 38 4zm-118-2c0-12-18-15-99-15-91 0-121 7-104 24 3 3 51 6 105 6 80 0 98-3 98-15z" style="fill:url(#linearGradient24);fill-opacity:1;fill-rule:nonzero"/><path id="path2-8" d="M2793 2523c15-2 37-2 50 0 12 2 0 4-28 4-27 0-38-2-22-4z" style="fill:url(#linearGradient25);fill-opacity:1;fill-rule:nonzero"/><path id="path3-4" d="M2640 5004c-19-7-44-13-56-13-11-1-29-7-40-15-18-14-18-15 6-20 97-23 122-24 142-4 19 19 19 20 1 41-10 12-18 22-18 23 0 0-16-5-35-12z" style="fill:url(#linearGradient27);fill-opacity:1;fill-rule:nonzero"/></g><g id="path" fill="#fff" stroke="none" transform="matrix(.37601 0 0 -.24395 -65.342153 526.83766)"><path id="path1-0" d="M2315 1340c-3-5 1-26 10-46 19-46 20-44-12-44-44 0-73-11-73-26 0-21 19-25 72-15l48 8 24-42c32-54 53-72 68-57 11 11 10 12-38 80l-17 23 57-7c52-6 56-5 56 14 0 24-17 30-90 34-43 3-46 5-60 46-14 40-32 53-45 32z"/><path id="path2-3" d="M1614 1221c-40-24-64-77-64-140 0-42 3-51 18-51 14 0 17 10 19 57 2 65 26 106 66 111 19 2 27 9 27 23 0 24-26 25-66 0z"/><path id="path3-6" d="M1757 1223c-13-12-7-33 9-33 9 0 63-16 120-35s106-35 109-35 5 8 5 18c0 13-24 25-98 49-131 43-137 44-145 36z"/><path id="path4-1" d="M2235 1138c-42-14-76-18-113-14-46 4-53 2-50-12 5-27 102-28 187-2 53 15 69 24 65 35-7 18-14 18-89-7z"/><path id="path5-0" d="M1560 953c0-5 11-48 24-98 13-49 26-102 30-117 4-20 13-28 27-28 16 0 19 4 14 18-4 9-19 65-33 124-22 86-31 108-44 108-10 0-18-3-18-7z"/><path id="path6-6" d="M1175 691c-16-10-50-39-75-65-34-35-41-49-32-58s20-3 47 25c19 20 51 48 70 63 30 23 39 25 60 16 19-9 24-8 29 5 14 35-51 44-99 14z"/><path id="path7-3" d="M1330 630c-11-7-3-21 45-72 94-99 124-123 138-109 17 17-162 194-183 181z"/><path id="path8-20" d="M1646 578c7-75-6-115-41-128-29-11-34-40-7-40 54 0 84 58 80 156-2 56-6 69-20 72-15 3-17-4-12-60z"/><path id="path9-61" d="M984 468c-34-67-74-179-68-190 13-21 33-4 44 40 7 26 28 77 45 114 27 55 30 69 19 78-10 9-19 0-40-42z"/></g><g id="rocket" fill="#000" stroke="none" style="fill:url(#radialGradient2)" transform="matrix(.10878 .074 .07344 -.1096 -80.205839 644.82321)"><g id="g159"><path id="path1-5" d="M1438 2473c-63-66-123-209-154-367-9-45-19-162-23-261l-7-180-127-199c-76-120-134-221-143-251-11-40-14-99-12-266 4-260 0-256 125-142 47 43 109 100 139 126l53 48-6-35c-4-29-2-35 17-41 17-5 20-12 15-28-22-75-28-153-17-221 15-95 27-126 50-126 14 0 27 17 45 57 14 32 28 51 30 43l20-80c40-167 70-162 116 22l16 69 28-56c31-63 62-75 73-27 3 15 10 43 15 62 14 54 11 171-6 226-8 27-15 50-15 52 0 1 6 2 14 2 28 0 41 29 28 63-11 30-9 29 41-19 229-219 260-241 273-190 3 14 4 118 2 233-4 249 4 228-172 503l-116 182v109c0 233-39 432-115 586-47 94-90 143-129 143-12 0-38-16-58-37zm101-106c16-51 32-113 36-139 8-55 25-64 25-15 0 36-32 142-57 191-8 15-10 25-4 22 19-12 61-92 91-175l30-81h-160c-88 0-160 2-160 5 0 16 64 174 84 209 31 52 65 88 76 81 5-3 23-47 39-98zm140-314c33-209 23-616-21-863-22-125-23-135-13-165 6-19 2-20-144-20-149 0-162 3-142 33 4 8 2 38-5 70-38 162-49 285-49 582 0 205 4 317 13 368l14 72h334zm-528-823c-96-92-121-122-126-150-9-54-2-233 11-237 5-2 60 43 120 99 165 154 167 155 163 137-2-9-71-78-154-153l-150-137-3 182c-2 132 1 195 11 229 8 26 63 125 123 219l109 173 8-124 8-123zm697 195c56-90 110-183 119-207 13-33 18-88 21-235 2-106 1-193-3-193-13 0-300 272-304 288-3 17 116-88 209-182 30-31 60-56 67-56 10 0 13 32 13 136v136l-38 37c-20 20-76 72-123 117l-85 81 8 89c5 49 8 104 6 122-2 17-2 32 2 32 3-1 51-75 108-165zm-568-124c0-4-47-54-105-109l-105-101v-99c0-79-3-102-16-113-14-12-16-3-12 99l3 112 110 110c104 104 125 121 125 101zm600-135 65-66 5-115c3-75 1-114-5-112s-11 51-13 110l-3 106-90 88c-50 48-97 92-105 96s-14 15-14 23c0 19 65-34 160-130zm-587 36c4-32 8-65 11-73s-38-53-102-112l-107-97-3 77-3 77 93 93c51 51 95 93 99 93 3 0 9-26 12-58zm575-86c42-45 42-46 42-122 0-41-4-74-9-72s-54 46-109 99l-101 96 11 71 11 71 57-49c31-27 75-69 98-94zm-195-161c5-12-21-15-169-17-97-2-178 0-181 5-13 22 20 27 177 27 138 0 169-3 173-15zm-254-107c-4-24-8-59-9-78 0-19-12-65-27-103-24-62-28-66-36-45-11 31-4 206 11 241 9 20 18 27 40 27 29 0 29 0 21-42zm115 5c14-88-5-281-33-331-14-24-41 135-41 237 0 119 4 131 40 131 24 0 28-5 34-37zm105 0c5-21 13-50 17-66 8-33-4-177-15-177-17 0-59 138-64 208l-4 72h28c24 0 30-5 38-37z" style="fill:url(#radialGradient1)"/><path id="path2-5" d="M1429 2037c-89-59-86-172 4-227 89-54 200 13 200 122 0 100-120 162-204 105zm79-56c15-47 15-66 1-113-12-46-30-48-70-9-21 22-29 39-29 66s8 44 29 66c39 39 56 37 69-10zm62 1c28-35 26-87-5-117-13-14-31-25-38-25-12 0-11 7 4 37 24 46 24 50-1 98-11 22-20 40-20 41 0 11 45-14 60-34z" style="fill:url(#radialGradient3)"/><path id="path3-47" d="M1515 1754c11-9 34-22 52-30 22-10 33-22 36-41 4-26 4-26 6 4 1 36-21 57-80 73-32 9-33 8-14-6z" style="fill:url(#radialGradient4)"/><path id="path4-6" d="M1352 1536c4-194 23-197 23-4 0 106-3 142-13 146-10 3-12-27-10-142z" style="fill:url(#radialGradient5)"/><path id="path5-5" d="M1625 1669c-10-26-1-279 10-279 14 0 19 270 6 283-7 7-12 5-16-4z" style="fill:url(#radialGradient6)"/><path id="path6-69" d="M1592 1500c-2-30-7-86-12-125-22-164-23-178-12-172 18 12 34 138 30 247-2 58-5 80-6 50z" style="fill:url(#radialGradient7)"/><path id="path7-37" d="M1485 1228c-46-131-63-184-59-190 7-11 142-10 148 1 8 13-58 194-72 199-7 2-14-2-17-10zm38-101c9-30 17-57 17-60 0-4-18-7-41-7-35 0-40 3-34 18 3 9 11 36 18 60 6 23 14 42 17 42 4 0 14-24 23-53z" style="fill:url(#radialGradient8)"/><path id="path8-4" d="M1778 1437c-5-10-8-40-8-65 1-37 3-43 11-29 5 9 9 39 7 65-2 32-5 41-10 29z" style="fill:url(#radialGradient9)"/><path id="path9-5" d="M1751 1156c-1-25 42-116 54-116 2 0-6 24-17 53-39 100-37 95-37 63z" style="fill:url(#radialGradient10)"/><path id="path10-2" d="M1503 770c0-41 2-58 4-37 2 20 2 54 0 75-2 20-4 3-4-38z" style="fill:url(#radialGradient11)"/><path id="path11-5" d="M1066 2420c-3-8-6-24-8-35-2-13-15-24-36-30-40-12-41-20 0-31 25-7 34-17 41-43 9-36 23-32 29 8 2 17 13 28 38 36l35 12-37 16c-24 10-38 23-38 34 0 10-4 25-10 33-8 13-10 13-14 0z" style="fill:url(#radialGradient12)"/><path id="path12-4" d="M1914 2401c-5-26-15-37-43-49l-36-15 35-12c26-9 36-19 42-44 10-37 23-34 31 8 5 22 13 31 37 36 38 8 38 21 0 29-17 3-33 14-36 23-18 56-22 59-30 24z" style="fill:url(#radialGradient13)"/><path id="path13-7" d="M1197 2168c-33-79-50-208-29-215 8-3 12 8 13 34 0 33 18 110 44 191 12 35-13 27-28-10z" style="fill:url(#radialGradient14)"/><path id="path14-4" d="M1765 2183c20-47 43-133 50-180 10-77 29-68 22 10-8 81-44 187-64 187-11 0-13-5-8-17z" style="fill:url(#radialGradient15)"/><path id="path15-4" d="M696 2127c-3-12-6-32-6-45 0-36-50-80-96-84-51-4-50-22 0-26 48-4 96-50 96-92 0-16 3-35 6-44 11-29 24-16 24 24 0 56 52 110 105 110 49 0 41 24-8 28-53 5-97 51-97 102 0 44-15 61-24 27zm32-119c27-27-5-73-38-53-20 12-4 65 20 65 3 0 11-5 18-12z" style="fill:url(#radialGradient16)"/><path id="path16-3" d="M2276 2134c-3-9-6-29-6-46 0-42-46-86-96-90s-51-22-2-26c53-4 96-49 100-104 5-62 28-62 28 0 0 41 4 52 19 57 11 3 23 15 26 26 5 15 16 19 52 19 55 0 55 23 0 28-53 5-97 51-97 102 0 41-14 61-24 34zm38-136c7-12 6-21-3-32-18-22-38-20-51 3-7 15-6 24 6 36 19 18 33 16 48-7z" style="fill:url(#radialGradient17)"/><path id="path17-0" d="M1115 1873c-4-11-17-24-28-28-20-6-20-8-4-12 10-3 23-17 29-31 10-26 10-27 18-5 5 12 17 26 27 31 17 10 17 11 0 18-10 4-23 16-27 28l-9 21z" style="fill:url(#radialGradient18)"/><path id="path18-78" d="M1955 1723c-4-12-17-25-28-29l-22-7 23-8c12-5 22-15 22-24 0-8 5-15 10-15 6 0 10 6 10 13 0 8 10 18 23 24l22 10-22 7c-12 4-24 17-26 29l-4 22z" style="fill:url(#radialGradient19)"/><path id="path19-6" d="M1031 1673c-1-7-10-21-22-31-17-17-18-20-5-25 9-4 16-13 16-22 0-8 5-15 10-15 6 0 10 7 10 15 0 9 10 20 23 24 20 8 21 10 4 16-10 4-23 17-27 29-5 12-9 16-9 9z" style="fill:url(#radialGradient20)"/><path id="path20-8" d="M581.06257 1369.0246c.65717-.1738 1.29254-.3501 1.98185-.5184.0313.2262.0899.4682.12395.6961-.70082-.063-1.40357-.1193-2.1058-.1777z" style="fill:url(#radialGradient21)"/><path id="path21-8" d="M2338 1443c-2-20-12-32-35-42-41-18-42-27-3-34 22-5 31-14 36-34 11-46 17-49 29-13 11 33 21 42 60 55 17 6 15 9-15 19-26 10-37 21-44 44-11 39-24 41-28 5z" style="fill:url(#radialGradient22)"/><path id="path22-4" d="M2205 1027c-6-31-12-39-36-44-42-8-45-21-7-31 25-6 34-15 41-41 8-34 22-32 29 4 2 11 19 27 38 37 37 17 36 18-18 34-7 2-15 12-18 21-18 57-21 59-29 20z" style="fill:url(#radialGradient23)"/><path id="path23-3" d="M762 768c-6-25-15-34-41-41-34-8-32-22 4-29 11-1 26-18 34-36 18-40 27-41 35-2 3 17 12 33 21 35 51 16 51 16 15 33-26 13-36 25-38 45-4 37-20 34-30-5z" style="fill:url(#radialGradient24)"/></g></g><g id="watch" style="fill:url(#linearGradient5-7);stroke:none" transform="matrix(.06035 -.01529 -.01529 -.06035 615.9311 545.78318)"><g id="g152" style="fill:url(#linearGradient152)"><g id="g151" style="fill:url(#linearGradient159)" transform="matrix(1.1804 0 0 1.1804 -193.91432 -462.24656)"><path id="path1-36" d="M1177 2373c-4-3-7-32-7-64 0-55-1-58-27-61l-28-3-3-93-3-93-77-77c-135-136-192-263-200-447-5-125 10-206 56-307 38-82 111-178 172-225l49-38 3-100 3-100 27-3c26-3 27-6 30-70l3-67 309-3c219-2 313 1 322 9 9 7 14 33 14 70 0 50 3 59 18 59 34 0 42 21 42 113v88l62 57c34 31 83 90 110 131 47 72 98 206 98 258 0 24 2 25 45 21l45-3v135h-45c-44 0-45 0-45 34 0 50-37 162-78 236-20 38-68 98-114 144l-78 78v87c0 89-8 111-42 111-14 0-18 11-20 63l-3 62-316 3c-173 1-318-1-322-5zm201-40c-15-2-42-2-60 0s-6 4 27 4 48-2 33-4zm170 0c-27-2-69-2-95 0-27 2-5 3 47 3s74-1 48-3zm170 0c-21-2-57-2-80 0-24 2-7 4 37 4s63-2 43-4zm77-43c0-13-41-15-302-18-249-2-303 0-303 11 0 8 3 17 7 20 4 4 140 6 302 5 255-3 296-5 296-18zm1-55c17-13 8-15-91-17-273-5-515 0-515 11 0 4 3 11 7 14 3 4 135 7 293 7 236 0 290-3 306-15zm22-102c3-41 1-45-15-38-10 5-56 22-103 38-76 27-98 30-200 30-121 0-209-17-282-54-20-10-40-19-43-19s-5 20-5 45v44l113 4c61 2 207 2 322 0l210-4zm-183-38c175-45 328-168 403-325 47-100 62-163 62-268 0-273-194-518-465-587-77-19-211-19-288 1-310 80-508 381-454 689 43 242 220 432 457 490 75 18 213 18 285 0zm559-581c9-8 16-19 16-23 0-15-25-31-47-31-20 0-23 5-23 35 0 28 4 35 19 35 11 0 27-7 35-16zm-976-613c75-38 161-55 282-55 102 0 125 4 200 31 47 16 93 33 103 37 15 7 17 2 17-40v-49h-650v48c0 26 2 47 5 47s23-9 43-19zm485-109c66-1 106-6 102-12-8-12-602-14-610-1-9 16 154 20 508 13zm92-62c0-13-41-15-294-18-172-1-299 2-304 7-28 28 10 31 301 29 256-3 297-5 297-18zm-25-46c8-9 7-15-2-20-14-9-537-6-552 3-5 3-1 12 8 19 25 18 531 17 546-2z" style="fill:url(#linearGradient155)"/><path id="path2-56" d="M1370 2064c-206-44-381-213-435-420-19-75-19-203 0-278 76-293 376-483 665-422 122 26 211 75 299 164 225 227 228 557 7 790-56 59-86 81-160 117-130 64-241 78-376 49zm110-104c0-64 3-80 15-80s15 16 15 80c0 57 4 80 13 80 30-1 146-30 184-47l42-18-39-65c-44-73-46-80-26-80 8 0 31 29 51 65l36 65 46-32c39-29 106-99 126-135 5-7-17-25-58-48-36-20-65-40-65-45 0-19 32-10 87 26 30 19 57 33 60 31 10-11 52-146 58-189l7-48h-76c-61 0-76-3-76-15s15-15 76-15h76l-7-52c-4-29-19-84-32-121-24-65-26-67-47-54-93 60-126 72-126 46 0-4 29-24 65-44l65-36-32-46c-28-39-133-133-148-133-3 0-15 22-28 48-32 64-49 85-61 77-7-4 1-29 25-70 19-36 33-69 30-73-7-12-128-49-183-56l-42-6-3 77c-4 101-22 101-26 0l-3-78-47 7c-51 7-159 39-180 52-10 7-5 22 22 68 20 32 36 65 36 72 0 27-20 9-56-53-21-36-42-65-46-65-13 0-168 155-168 168 0 6 27 27 60 47s60 40 60 44c0 21-17 16-76-20l-64-39-16 38c-21 51-44 140-44 174v28h75c60 0 75 3 75 15s-15 15-76 15h-77l7 55c6 50 40 160 55 177 3 4 31-8 61-27 59-37 80-43 80-22 0 6-27 27-60 45s-60 38-60 44c0 14 156 168 170 168 5 0 21-21 34-47 33-65 51-87 64-79 7 4-4 30-29 74l-40 67 43 19c44 20 135 44 176 45 21 1 22-2 22-79z" style="fill:url(#linearGradient156)"/><path id="path3-3" d="M1420 1780c0-10 65-80 74-80 8 0 76 72 76 81 0 16-13 10-45-21l-31-30-29 30c-30 31-45 38-45 20z" style="fill:url(#linearGradient157)"/><path id="path4-94" d="M1678 1670c-60-44-108-76-108-72 0 5 5 13 12 20 9 9 9 12 1 12-7 0-24-18-40-40-15-22-36-40-47-40-10 0-65 32-123 71-84 57-107 68-119 58-8-6-14-15-14-19s47-38 104-76c58-38 107-78 110-88 3-13-36-75-130-203-74-102-133-190-131-196 3-11 94 107 227 295 30 42 60 75 66 73 16-5 54 23 54 40 0 7 58 54 128 103 137 97 157 115 147 132-11 18-29 10-137-70z" style="fill:url(#linearGradient158)"/></g></g></g></g></svg>
