<?xml version="1.0" encoding="UTF-8" standalone="no"?>
<svg
   version="1.0"
   width="300.000000pt"
   height="300.000000pt"
   viewBox="0 0 300.000000 300.000000"
   preserveAspectRatio="xMidYMid meet"
   id="svg9"
   sodipodi:docname="qiPp6201.svg"
   inkscape:version="1.3 (0e150ed6c4, 2023-07-21)"
   xmlns:inkscape="http://www.inkscape.org/namespaces/inkscape"
   xmlns:sodipodi="http://sodipodi.sourceforge.net/DTD/sodipodi-0.dtd"
   xmlns:xlink="http://www.w3.org/1999/xlink"
   xmlns="http://www.w3.org/2000/svg"
   xmlns:svg="http://www.w3.org/2000/svg">
  <defs
     id="defs9">
    <linearGradient
       id="linearGradient9"
       inkscape:collect="always">
      <stop
         style="stop-color:#00ff00;stop-opacity:1;"
         offset="0"
         id="stop9" />
      <stop
         style="stop-color:#008d61;stop-opacity:1;"
         offset="0.4519887"
         id="stop1" />
      <stop
         style="stop-color:#00ffd2;stop-opacity:1;"
         offset="1"
         id="stop10" />
    </linearGradient>
    <linearGradient
       inkscape:collect="always"
       xlink:href="#linearGradient9"
       id="linearGradient10"
       x1="948"
       y1="1484.5714"
       x2="2047.4023"
       y2="1484.5714"
       gradientUnits="userSpaceOnUse" />
  </defs>
  <sodipodi:namedview
     id="namedview9"
     pagecolor="#ffffff"
     bordercolor="#cccccc"
     borderopacity="1"
     inkscape:showpageshadow="0"
     inkscape:pageopacity="1"
     inkscape:pagecheckerboard="0"
     inkscape:deskcolor="#d1d1d1"
     inkscape:document-units="pt"
     inkscape:zoom="2.105"
     inkscape:cx="200"
     inkscape:cy="199.52494"
     inkscape:window-width="1920"
     inkscape:window-height="1019"
     inkscape:window-x="0"
     inkscape:window-y="32"
     inkscape:window-maximized="1"
     inkscape:current-layer="svg9" />
  <metadata
     id="metadata1">&#10;Created by potrace 1.10, written by Peter Selinger 2001-2011&#10;</metadata>
  <g
     transform="translate(0.000000,300.000000) scale(0.100000,-0.100000)"
     fill="#000000"
     stroke="none"
     id="g9"
     style="fill:url(#linearGradient10)">
    <path
       d="M1485 2365 c-3 -11 -23 -62 -42 -114 -64 -167 -63 -215 2 -309 l34 -50 -8 -119 c-5 -67 -4 -192 2 -288 20 -352 11 -765 -19 -868 -5 -15 -1 -18 18 -15 22 3 24 9 36 118 13 114 12 211 -4 892 l-7 258 43 71 c65 106 65 140 2 309 -37 98 -52 129 -57 115z m46 -191 c26 -74 22 -147 -10 -193 -13 -18 -28 -30 -34 -28 -6 2 -22 23 -35 48 -19 36 -22 53 -17 89 8 53 33 129 48 148 14 18 24 5 48 -64z"
       id="path1"
       style="fill:url(#linearGradient10)" />
    <path
       d="M1331 2097 c-24 -29 -41 -89 -41 -144 0 -75 31 -141 98 -213 l51 -55 1 56 c0 68 -22 145 -63 217 -23 42 -31 67 -30 104 1 53 0 54 -16 35z m40 -211 c20 -45 25 -81 9 -71 -16 10 -50 82 -50 105 0 30 19 15 41 -34z"
       id="path2"
       style="fill:url(#linearGradient10)" />
    <path
       d="M1635 2062 c0 -36 -10 -67 -43 -132 -35 -69 -45 -100 -51 -165 -4 -44 -7 -81 -6 -83 9 -10 101 104 128 158 41 82 44 163 7 228 -13 23 -26 42 -29 42 -3 0 -6 -21 -6 -48z m-6 -203 c-22 -49 -39 -63 -39 -34 0 9 12 39 27 68 35 67 46 37 12 -34z"
       id="path3"
       style="fill:url(#linearGradient10)" />
    <path
       d="M1186 1910 c-9 -22 -16 -69 -16 -104 0 -91 41 -168 128 -244 36 -31 86 -76 110 -100 l45 -42 -7 62 c-10 96 -42 154 -129 233 -94 85 -110 114 -106 183 2 29 1 52 -2 52 -4 0 -14 -18 -23 -40z m122 -238 c59 -58 93 -114 79 -128 -9 -9 -98 69 -125 109 -34 48 -48 87 -33 87 5 0 41 -31 79 -68z"
       id="path4"
       style="fill:url(#linearGradient10)" />
    <path
       d="M1778 1910 c7 -69 -6 -91 -102 -185 -102 -99 -127 -145 -140 -258 l-6 -57 48 47 c27 27 79 75 117 108 87 76 125 150 125 242 0 58 -23 143 -39 143 -4 0 -5 -18 -3 -40z m-28 -225 c-30 -62 -160 -176 -160 -140 0 14 40 83 62 105 45 47 113 100 116 90 2 -6 -6 -30 -18 -55z"
       id="path5"
       style="fill:url(#linearGradient10)" />
    <path
       d="M985 1623 c16 -128 72 -241 160 -322 28 -26 89 -63 154 -93 58 -28 120 -61 138 -74 l31 -24 -5 43 c-7 58 -39 151 -67 195 -39 62 -108 117 -214 172 -72 36 -114 65 -142 97 -22 25 -40 50 -40 54 0 5 -5 9 -11 9 -7 0 -8 -19 -4 -57z m174 -132 c127 -68 181 -115 220 -193 39 -78 40 -92 4 -84 -63 15 -178 80 -228 130 -48 48 -115 161 -115 193 0 18 -6 20 119 -46z"
       id="path6"
       style="fill:url(#linearGradient10)" />
    <path
       d="M1957 1624 c-35 -39 -75 -68 -149 -106 -57 -30 -122 -73 -148 -98 -54 -53 -105 -153 -115 -225 -4 -27 -9 -59 -12 -70 -5 -19 -5 -19 18 2 13 11 78 47 143 78 91 44 131 69 173 110 82 82 151 245 141 333 l-3 29 -48 -53z m-7 -91 c0 -35 -50 -124 -97 -174 -57 -61 -103 -92 -195 -130 -65 -27 -68 -27 -68 -8 0 39 54 131 104 176 28 25 80 60 116 78 36 19 79 43 95 54 38 25 45 25 45 4z"
       id="path7"
       style="fill:url(#linearGradient10)" />
    <path
       d="M955 1250 c11 -56 65 -149 109 -187 57 -49 144 -87 257 -112 53 -11 109 -25 123 -31 25 -9 27 -8 21 12 -16 52 -39 90 -80 127 -58 53 -108 78 -212 102 -116 26 -159 46 -195 88 l-30 36 7 -35z m198 -124 c53 -13 120 -37 149 -53 52 -30 97 -77 86 -89 -11 -11 -157 25 -210 52 -51 25 -128 89 -128 106 0 10 -7 11 103 -16z"
       id="path8"
       style="fill:url(#linearGradient10)" />
    <path
       d="M2025 1256 c-27 -40 -75 -64 -185 -91 -56 -14 -120 -35 -142 -46 -57 -29 -124 -94 -148 -143 -27 -58 -26 -68 6 -56 14 6 65 19 112 29 170 37 259 86 318 176 33 49 69 143 60 153 -3 2 -12 -8 -21 -22z m-84 -125 c-16 -29 -71 -72 -126 -97 -62 -28 -168 -56 -198 -52 -20 3 -19 6 20 45 51 51 105 77 215 102 106 24 100 24 89 2z"
       id="path9"
       style="fill:url(#linearGradient10)" />
  </g>
</svg>
