<?xml version="1.0" encoding="UTF-8" standalone="no"?>
<svg
   version="1.0"
   width="900.000000pt"
   height="900.000000pt"
   viewBox="0 0 900.000000 900.000000"
   preserveAspectRatio="xMidYMid meet"
   id="svg3"
   sodipodi:docname="oGFfvC01.svg"
   inkscape:version="1.3 (0e150ed6c4, 2023-07-21)"
   xmlns:inkscape="http://www.inkscape.org/namespaces/inkscape"
   xmlns:sodipodi="http://sodipodi.sourceforge.net/DTD/sodipodi-0.dtd"
   xmlns:xlink="http://www.w3.org/1999/xlink"
   xmlns="http://www.w3.org/2000/svg"
   xmlns:svg="http://www.w3.org/2000/svg">
  <defs
     id="defs3">
    <linearGradient
       id="linearGradient8">
      <stop
         style="stop-color:#01aeff;stop-opacity:1;"
         offset="0"
         id="stop8" />
      <stop
         style="stop-color:#8057ff;stop-opacity:1;"
         offset="0.5"
         id="stop1" />
      <stop
         style="stop-color:#ff00ff;stop-opacity:1;"
         offset="1"
         id="stop9" />
    </linearGradient>
    <linearGradient
       inkscape:collect="always"
       xlink:href="#linearGradient8"
       id="linearGradient1"
       gradientUnits="userSpaceOnUse"
       x1="2501.7009"
       y1="4410.708"
       x2="6325"
       y2="4410.708"
       spreadMethod="reflect" />
  </defs>
  <sodipodi:namedview
     id="namedview3"
     pagecolor="#ffffff"
     bordercolor="#cccccc"
     borderopacity="1"
     inkscape:showpageshadow="0"
     inkscape:pageopacity="1"
     inkscape:pagecheckerboard="0"
     inkscape:deskcolor="#d1d1d1"
     inkscape:document-units="pt"
     inkscape:zoom="0.70166667"
     inkscape:cx="600"
     inkscape:cy="600"
     inkscape:window-width="1920"
     inkscape:window-height="1019"
     inkscape:window-x="0"
     inkscape:window-y="32"
     inkscape:window-maximized="1"
     inkscape:current-layer="svg3" />
  <metadata
     id="metadata1">&#10;Created by potrace 1.10, written by Peter Selinger 2001-2011&#10;</metadata>
  <g
     transform="matrix(0.09565394,0.0291603,0.0291603,-0.09565394,-137.55178,738.84385)"
     fill="#000000"
     stroke="none"
     id="g3"
     style="fill:url(#linearGradient1);fill-rule:nonzero">
    <path
       d="m 2906,6772 c -2,-4 -6,-53 -7,-107 -2,-55 -8,-103 -14,-107 -12,-9 -106,-10 -157,-2 -28,5 -38,11 -38,25 0,11 5,19 12,19 6,0 4,8 -6,19 -13,15 -23,17 -44,10 -15,-4 -54,-12 -87,-16 -45,-6 -61,-12 -63,-25 -2,-12 6,-22 25,-29 l 28,-11 -29,-15 c -35,-18 -24,-32 36,-43 90,-17 98,-24 98,-80 0,-80 17,-58 23,31 3,44 8,84 12,87 9,9 150,15 180,8 25,-6 25,-8 25,-110 v -103 l -67,-6 c -38,-3 -90,-1 -118,3 -61,9 -158,-3 -191,-25 -34,-22 -22,-35 32,-35 52,0 59,-16 9,-26 -71,-13 -74,-63 -3,-65 88,-2 92,-6 98,-87 3,-40 1,-77 -5,-83 -5,-5 -28,-9 -51,-9 -59,0 -94,-15 -94,-40 0,-17 6,-20 51,-20 63,0 63,-22 1,-31 -23,-3 -44,-8 -47,-11 -14,-13 10,-38 41,-43 19,-3 50,-7 69,-10 l 35,-6 v -78 c 0,-89 -2,-91 -75,-91 -56,0 -75,-8 -75,-30 0,-14 11,-20 43,-25 23,-3 56,-9 72,-12 l 30,-6 -25,-8 c -14,-4 -44,-7 -67,-8 -43,-1 -63,-15 -46,-32 5,-5 38,-15 72,-21 35,-7 65,-17 66,-22 2,-6 7,-29 11,-51 8,-40 8,-40 14,24 8,67 18,81 59,76 14,-2 57,-4 94,-4 l 68,-1 -2,-150 -3,-150 h -101 c -56,0 -104,3 -107,6 -3,3 -1,18 5,35 17,43 -5,61 -58,49 -22,-5 -58,-13 -80,-17 -25,-5 -40,-13 -40,-23 0,-10 12,-16 40,-18 63,-4 108,-13 100,-20 -4,-4 -37,-9 -73,-12 -50,-4 -67,-9 -67,-20 0,-10 22,-20 70,-31 l 70,-16 3,-59 c 4,-83 22,-94 22,-13 0,114 -3,110 114,107 l 101,-3 v -150 -150 l -92,-3 c -51,-1 -101,1 -110,6 -24,11 -178,0 -177,-13 0,-11 30,-21 86,-30 41,-6 72,-30 65,-50 -3,-6 -1,-18 4,-26 6,-10 9,-3 9,22 0,63 13,70 120,67 l 95,-3 3,-117 c 2,-90 0,-118 -10,-119 -7,-1 -53,0 -103,1 -71,1 -93,5 -103,18 -10,13 -15,14 -21,4 -4,-7 -38,-15 -75,-19 -76,-7 -86,-26 -15,-31 62,-3 91,-11 84,-22 -3,-6 -23,-10 -43,-11 -90,-2 -122,-33 -45,-45 86,-12 87,-13 99,-95 l 11,-74 2,72 c 0,40 6,83 12,97 9,20 9,29 -2,42 -11,14 -10,18 6,30 15,11 44,14 110,12 l 90,-3 v -155 -155 l -87,-3 c -96,-3 -128,7 -129,41 v 22 l -16,-22 c -10,-16 -26,-23 -47,-23 -58,0 -106,-12 -106,-26 0,-9 13,-14 38,-15 37,0 121,-15 112,-19 -3,-1 -34,-7 -70,-14 -47,-8 -66,-16 -68,-28 -3,-13 8,-18 55,-23 87,-9 86,-9 84,-103 -1,-53 2,-82 8,-82 7,0 11,32 11,85 0,73 3,86 19,95 23,12 170,13 189,1 10,-6 13,-42 10,-157 l -3,-149 -80,-3 c -44,-2 -91,0 -104,3 -21,5 -23,10 -18,42 8,48 -7,76 -36,67 -12,-4 -49,-10 -82,-13 -33,-3 -59,-10 -58,-16 1,-5 25,-14 52,-19 28,-5 51,-13 51,-17 0,-5 -25,-16 -55,-25 -76,-24 -70,-40 17,-48 39,-3 74,-9 77,-11 10,-11 0,-180 -12,-187 -7,-4 -33,-8 -59,-8 -86,0 -98,-16 -41,-51 20,-13 32,-24 27,-25 -5,-1 -21,-5 -36,-8 -47,-11 -34,-33 25,-41 88,-12 97,-22 97,-114 v -79 l -31,-6 c -17,-3 -46,-6 -63,-6 -17,0 -38,-5 -46,-10 -13,-9 -12,-13 8,-29 29,-25 28,-35 -5,-50 -34,-15 -20,-30 39,-41 23,-5 56,-13 71,-19 28,-11 28,-12 25,-88 -3,-86 -2,-85 -90,-98 -66,-10 -88,-55 -28,-55 41,0 46,-18 8,-28 -23,-6 -33,-14 -33,-27 0,-22 23,-31 98,-40 l 47,-6 v -79 -79 l -47,-6 c -75,-9 -98,-18 -98,-40 0,-13 10,-21 34,-28 26,-6 31,-11 20,-18 -8,-5 -24,-9 -36,-9 -12,0 -24,-4 -27,-9 -9,-14 16,-29 77,-45 32,-8 61,-17 65,-20 13,-8 4,-128 -10,-138 -19,-11 -79,-28 -105,-28 -30,0 -38,-18 -18,-40 15,-17 15,-20 0,-44 -20,-30 -18,-31 68,-41 56,-6 60,-9 75,-43 l 15,-37 8,33 c 4,19 11,38 16,43 6,6 52,8 104,7 l 94,-3 v -45 -45 l -80,-3 c -44,-2 -84,-7 -88,-11 -39,-39 242,-47 1953,-55 1090,-5 1272,-4 1315,8 28,8 87,22 133,30 95,18 125,32 167,76 l 30,31 -1,627 c 0,345 -1,1357 -2,2250 l -2,1623 -39,42 -40,42 -1665,3 c -915,1 -1667,-1 -1670,-6 z m 117,-186 c 9,-23 -9,-39 -37,-32 -30,7 -34,30 -9,44 19,11 39,6 46,-12 z m 1511,-152 c 9,-8 16,-19 16,-24 0,-10 -29,-40 -38,-40 -34,1 -52,15 -52,40 0,40 44,54 74,24 z m 549,-153 c 5,-5 11,-26 14,-47 7,-58 -24,-94 -81,-94 -64,0 -100,53 -77,113 19,49 106,66 144,28 z m -2185,-23 3,-28 h -105 c -109,0 -123,6 -104,43 8,15 21,17 106,15 l 97,-3 z m 117,12 c 24,-26 13,-50 -24,-50 -35,0 -45,20 -25,49 19,26 26,26 49,1 z m 543,-13 c 4,-35 -33,-53 -60,-29 -33,28 -13,65 32,60 19,-2 26,-10 28,-31 z m -660,-164 -3,-108 -94,-3 c -60,-2 -98,1 -107,9 -15,12 -20,119 -8,178 l 7,31 h 104 104 z m 0,-162 c 6,-39 -9,-44 -112,-36 -90,7 -96,9 -96,29 0,37 14,41 112,36 89,-5 93,-6 96,-29 z m 1332,20 45,-8 -40,-6 c -22,-4 -60,-12 -85,-19 -25,-6 -72,-14 -105,-18 -60,-7 -71,-10 -195,-49 -206,-65 -360,-153 -480,-275 -96,-98 -154,-87 -74,14 73,93 183,177 312,240 79,38 135,59 190,71 24,5 48,12 54,15 10,6 270,41 313,42 11,0 40,-3 65,-7 z m -1205,-25 c 16,-12 17,-16 6,-30 -17,-20 -55,-21 -71,-1 -10,12 -10,18 0,30 16,19 40,19 65,1 z m 2423,-23 c 3,-31 1,-33 -27,-33 -34,0 -51,31 -30,56 22,26 54,13 57,-23 z m -2550,-140 -3,-108 -94,-3 c -60,-2 -98,1 -107,9 -15,12 -20,119 -8,178 l 7,31 h 104 104 z m 3031,81 c 26,-34 27,-58 0,-85 -28,-28 -76,-22 -102,12 -15,21 -17,31 -8,47 31,58 77,68 110,26 z m -1180,-3 c 17,-11 6,-31 -18,-31 -25,0 -33,11 -20,27 13,15 19,16 38,4 z m 340,-212 c 41,-40 41,-80 2,-120 -85,-85 -207,36 -124,123 37,39 82,38 122,-3 z m -2087,9 c -9,-9 -15,-9 -24,0 -9,9 -7,12 12,12 19,0 21,-3 12,-12 z m -104,-40 c 2,-16 0,-28 -5,-28 -194,-12 -220,-7 -202,38 8,22 13,23 106,20 l 98,-3 z m 1467,12 c -92,-24 -167,-40 -192,-40 -15,0 -68,-12 -118,-26 -49,-14 -104,-29 -122,-33 -30,-8 -195,-87 -238,-114 -89,-55 -194,-153 -255,-236 -56,-76 -90,-97 -90,-56 0,28 74,136 143,208 158,164 351,257 607,292 106,14 315,18 265,5 z m -1351,-6 c 20,-8 21,-40 1,-48 -17,-6 -65,9 -65,22 0,24 33,38 64,26 z m 2861,-144 c 9,-27 -1,-40 -30,-40 -29,0 -39,13 -30,40 4,13 15,20 30,20 15,0 26,-7 30,-20 z M 3830,5321 c 0,-6 -11,-16 -24,-23 -153,-82 -318,-260 -406,-440 -13,-27 -29,-48 -37,-48 -18,0 -17,61 1,97 8,15 17,35 20,43 24,65 150,211 241,278 89,67 205,119 205,93 z m -811,-48 c 15,-33 0,-49 -46,-44 -16,1 -17,43 -1,59 19,19 34,14 47,-15 z m 1124,12 c -1,-5 -13,-11 -25,-13 -13,-2 -38,-9 -55,-17 -18,-8 -50,-23 -70,-32 -43,-19 -155,-83 -163,-93 -3,-3 -25,-20 -50,-37 -62,-42 -164,-152 -226,-243 -52,-78 -77,-93 -83,-50 -9,67 141,255 274,344 86,58 217,119 282,131 18,4 35,11 39,16 8,13 80,7 77,-6 z m 1067,-130 c 0,-31 -26,-43 -47,-22 -21,21 -9,47 22,47 20,0 25,-5 25,-25 z m 575,5 c 35,-38 -3,-91 -54,-75 -28,9 -35,40 -15,70 20,30 44,32 69,5 z M 4534,5041 c 7,-11 -58,-29 -148,-41 -42,-5 -85,-14 -96,-20 -10,-5 -26,-10 -35,-10 -31,0 -199,-90 -263,-141 -78,-62 -143,-144 -186,-234 -50,-105 -57,-130 -72,-249 -11,-92 -11,-126 1,-222 8,-62 19,-122 24,-133 6,-11 11,-28 11,-38 1,-29 83,-186 132,-249 165,-214 402,-324 694,-324 66,0 137,5 159,11 22,5 60,14 85,18 94,19 230,80 322,145 68,47 86,43 31,-8 -61,-57 -235,-166 -265,-166 -6,0 -24,-6 -41,-14 -136,-58 -393,-69 -565,-25 -182,46 -375,175 -487,324 -41,55 -50,70 -88,150 -65,138 -97,276 -97,427 0,237 63,405 215,567 76,82 213,164 330,199 101,29 328,52 339,33 z M 3018,4938 c 16,-16 15,-23 -4,-42 -12,-12 -20,-13 -35,-6 -19,10 -26,40 -12,53 10,11 38,8 51,-5 z m 1661,-74 c 193,-57 329,-165 407,-324 117,-238 42,-535 -168,-672 -85,-55 -131,-68 -246,-68 -93,0 -107,3 -168,31 -64,31 -164,115 -164,139 0,6 -7,18 -15,26 -17,18 -20,44 -5,44 6,0 13,-8 17,-17 10,-30 98,-108 149,-133 65,-32 231,-41 291,-15 108,47 156,85 211,166 90,133 98,341 19,482 -52,94 -139,178 -227,219 -88,40 -115,48 -197,53 -134,9 -246,-13 -348,-68 -16,-9 -39,-20 -50,-25 -27,-13 -175,-160 -175,-174 0,-6 -6,-19 -13,-27 -16,-19 -39,-76 -61,-150 -37,-123 -6,-329 67,-446 59,-95 158,-197 222,-231 121,-63 170,-84 191,-84 8,0 37,-7 64,-16 61,-20 371,-17 392,4 6,6 27,12 46,12 43,0 38,-24 -6,-28 -17,-2 -36,-10 -42,-18 -7,-8 -24,-14 -39,-14 -14,0 -51,-7 -81,-15 -105,-28 -247,-19 -400,26 -35,11 -176,76 -195,91 -87,67 -185,169 -206,213 -6,11 -17,34 -26,50 -33,60 -55,132 -71,225 -13,81 -13,108 -3,184 15,102 50,196 105,278 39,60 137,157 183,182 89,48 165,80 222,96 88,23 247,25 320,4 z m 1299,-116 c 18,-18 15,-43 -8,-63 -17,-15 -24,-16 -45,-7 -43,20 -28,82 20,82 12,0 26,-5 33,-12 z m -708,-63 c 0,-7 7,-15 15,-19 8,-3 15,-14 15,-24 0,-11 7,-25 15,-32 8,-7 15,-18 15,-25 0,-8 6,-26 14,-42 35,-71 46,-132 46,-250 0,-130 -10,-175 -62,-278 -50,-99 -97,-154 -193,-226 -137,-104 -246,-139 -425,-139 -204,0 -360,61 -488,191 -109,109 -157,254 -133,397 7,42 19,86 27,97 8,10 14,28 14,37 0,27 138,161 190,185 76,34 154,53 211,52 53,-1 128,-15 99,-18 -159,-18 -217,-36 -307,-94 -63,-41 -112,-98 -147,-172 -28,-58 -29,-233 -1,-295 93,-214 373,-344 643,-300 87,14 152,39 255,97 49,28 141,120 180,181 60,95 76,143 93,277 7,52 -17,219 -36,254 -5,11 -10,28 -10,39 0,11 -7,25 -15,32 -8,7 -15,22 -15,33 0,11 -7,25 -17,32 -9,7 -13,17 -9,24 9,14 26,5 26,-14 z m -2253,-81 c 7,-18 -12,-64 -27,-64 -15,0 -34,46 -27,64 4,9 16,16 27,16 11,0 23,-7 27,-16 z m 1723,-234 c 59,-46 80,-88 80,-154 0,-63 -28,-119 -74,-149 -61,-40 -98,-6 -48,46 16,18 37,47 47,66 16,31 16,36 0,77 -22,57 -65,84 -134,84 -50,0 -55,-3 -102,-51 -49,-50 -49,-51 -49,-117 0,-66 11,-96 50,-133 30,-29 101,-59 139,-59 21,0 54,-3 72,-7 33,-7 33,-7 9,-14 -14,-4 -53,-7 -86,-8 -92,-1 -176,41 -222,113 -22,34 -26,52 -26,111 1,82 27,140 86,188 46,37 87,47 161,42 46,-4 67,-11 97,-35 z m 947,24 c 6,-16 -19,-44 -39,-44 -12,0 -21,28 -14,45 7,20 45,19 53,-1 z M 3016,4264 c 5,-26 3,-39 -7,-45 -24,-15 -44,-5 -47,24 -5,39 4,57 27,57 15,0 22,-9 27,-36 z m -118,-16 c 3,-26 3,-26 -81,-33 -97,-8 -123,-3 -131,27 -8,33 9,38 114,36 95,-3 95,-3 98,-30 z m 631,-203 c 3,-69 51,-226 102,-331 72,-147 237,-335 351,-400 56,-31 170,-84 182,-84 22,0 106,-38 106,-48 0,-5 -7,-15 -15,-22 -11,-9 -27,-9 -72,0 -64,13 -73,16 -153,54 -98,47 -190,114 -276,202 -56,57 -134,162 -134,180 0,4 -6,15 -14,23 -15,18 -65,146 -91,235 -18,64 -25,252 -9,277 10,17 21,-22 23,-86 z m 2526,-116 c 9,-28 -16,-53 -44,-44 -20,6 -29,43 -14,58 15,15 52,6 58,-14 z m -3037,-11 c 15,-15 -3,-38 -29,-38 -22,0 -33,16 -25,35 7,18 37,20 54,3 z m -120,-180 3,-118 h -105 c -99,0 -104,1 -110,23 -8,31 -8,202 1,211 4,4 52,5 107,4 l 101,-3 z m 3076,-141 c -19,-32 -27,-37 -40,-26 -17,14 -18,46 -1,52 18,7 49,-12 41,-26 z m -2962,-2 c 9,-21 9,-29 -3,-40 -13,-13 -18,-13 -34,-1 -17,12 -18,17 -7,40 15,33 29,33 44,1 z m -112,-18 c 0,-7 -5,-18 -11,-24 -8,-8 -8,-17 0,-31 6,-11 11,-68 11,-126 v -106 h -100 c -100,0 -101,0 -111,28 -6,16 -8,61 -4,112 3,47 6,102 6,123 l 1,37 h 104 c 79,0 104,-3 104,-13 z m 720,-267 c 0,-29 221,-200 257,-200 7,0 13,-7 13,-15 0,-34 -79,-8 -158,51 -46,34 -69,58 -110,110 -35,46 -40,64 -17,64 8,0 15,-5 15,-10 z m 2056,-16 c 9,-36 -25,-71 -54,-55 -24,13 -32,32 -25,60 4,16 13,21 39,21 28,0 35,-4 40,-26 z m -2664,-28 c 14,-31 4,-56 -22,-56 -16,0 -20,6 -20,33 0,52 23,64 42,23 z m -114,-23 c -3,-16 -16,-18 -103,-18 -87,0 -100,2 -103,18 -3,15 7,17 103,17 96,0 106,-2 103,-17 z m 962,-33 c 0,-4 11,-11 25,-14 14,-4 25,-11 25,-16 0,-6 10,-10 23,-10 12,0 31,-7 41,-15 11,-8 29,-15 40,-15 12,0 30,-7 40,-15 11,-8 34,-15 52,-15 38,0 64,-9 64,-21 0,-15 -113,-10 -134,6 -11,8 -30,15 -42,15 -13,0 -26,5 -29,11 -4,5 -17,15 -28,20 -33,15 -60,32 -84,54 -26,22 -30,37 -8,29 8,-4 15,-10 15,-14 z m -965,-32 c 3,-13 5,-68 3,-123 l -3,-100 -90,-3 c -49,-1 -96,2 -104,7 -20,13 -28,170 -11,211 l 12,30 h 94 c 89,0 94,-1 99,-22 z m 665,-206 c 0,-26 -11,-34 -27,-21 -20,17 -16,39 7,39 13,0 20,-7 20,-18 z m -662,-74 3,-28 h -105 c -104,0 -106,0 -106,23 0,13 3,27 7,31 4,4 50,5 103,4 l 95,-3 z m 117,2 c 0,-18 -6,-26 -22,-28 -20,-3 -23,1 -23,28 0,27 3,31 23,28 16,-2 22,-10 22,-28 z m 2469,21 c 9,-14 -4,-41 -20,-41 -8,0 -14,10 -14,25 0,25 23,35 34,16 z m -1111,-92 c 16,-26 1,-49 -33,-49 -27,0 -30,3 -30,29 0,41 41,54 63,20 z m -1475,-93 c 1,-55 -2,-104 -7,-109 -6,-6 -6,-18 1,-32 7,-16 7,-29 -2,-45 -9,-16 -9,-25 -1,-33 7,-7 11,-53 11,-114 0,-101 0,-103 -25,-109 -29,-7 -171,-2 -179,7 -3,3 -9,47 -12,97 -8,104 -1,121 50,123 29,2 29,2 4,6 -41,6 -53,27 -35,61 12,26 12,30 -2,39 -12,8 -17,31 -20,97 -1,47 0,93 3,101 5,13 24,15 108,13 l 103,-3 z m 1917,-37 c 5,-15 1,-28 -14,-42 -17,-18 -24,-19 -46,-9 -16,8 -25,20 -25,35 0,31 7,37 46,37 24,0 34,-5 39,-21 z m -1801,-94 c 8,-22 -4,-47 -21,-41 -8,3 -17,6 -19,6 -2,0 -4,11 -4,25 0,18 5,25 19,25 10,0 21,-7 25,-15 z m 4,-348 c 2,-12 -3,-17 -17,-17 -12,0 -21,6 -21,13 0,31 32,34 38,4 z m -118,-2 c 0,-12 -18,-15 -99,-15 -91,0 -121,7 -104,24 3,3 51,6 105,6 80,0 98,-3 98,-15 z"
       id="path1"
       style="fill:url(#linearGradient1);fill-opacity:1;fill-rule:nonzero" />
    <path
       d="m 2793,2523 c 15,-2 37,-2 50,0 12,2 0,4 -28,4 -27,0 -38,-2 -22,-4 z"
       id="path2"
       style="fill:url(#linearGradient1);fill-opacity:1;fill-rule:nonzero" />
    <path
       d="m 2640,5004 c -19,-7 -44,-13 -56,-13 -11,-1 -29,-7 -40,-15 -18,-14 -18,-15 6,-20 97,-23 122,-24 142,-4 19,19 19,20 1,41 -10,12 -18,22 -18,23 0,0 -16,-5 -35,-12 z"
       id="path3"
       style="fill:url(#linearGradient1);fill-opacity:1;fill-rule:nonzero" />
  </g>
</svg>
