 <svg  version="1.0" xmlns="http://www.w3.org/2000/svg"  width="300.000000pt" height="153.000000pt" viewBox="0 0 300.000000 153.000000"  preserveAspectRatio="xMidYMid meet">  <g transform="translate(0.000000,153.000000) scale(0.100000,-0.100000)" fill="#ffffff" stroke="none"> <path d="M2315 1340 c-3 -5 1 -26 10 -46 19 -46 20 -44 -12 -44 -44 0 -73 -11 -73 -26 0 -21 19 -25 72 -15 l48 8 24 -42 c32 -54 53 -72 68 -57 11 11 10 12 -38 80 l-17 23 57 -7 c52 -6 56 -5 56 14 0 24 -17 30 -90 34 -43 3 -46 5 -60 46 -14 40 -32 53 -45 32z"/> <path d="M1614 1221 c-40 -24 -64 -77 -64 -140 0 -42 3 -51 18 -51 14 0 17 10 19 57 2 65 26 106 66 111 19 2 27 9 27 23 0 24 -26 25 -66 0z"/> <path d="M1757 1223 c-13 -12 -7 -33 9 -33 9 0 63 -16 120 -35 57 -19 106 -35 109 -35 3 0 5 8 5 18 0 13 -24 25 -98 49 -131 43 -137 44 -145 36z"/> <path d="M2235 1138 c-42 -14 -76 -18 -113 -14 -46 4 -53 2 -50 -12 5 -27 102 -28 187 -2 53 15 69 24 65 35 -7 18 -14 18 -89 -7z"/> <path d="M1560 953 c0 -5 11 -48 24 -98 13 -49 26 -102 30 -117 4 -20 13 -28 27 -28 16 0 19 4 14 18 -4 9 -19 65 -33 124 -22 86 -31 108 -44 108 -10 0 -18 -3 -18 -7z"/> <path d="M1175 691 c-16 -10 -50 -39 -75 -65 -34 -35 -41 -49 -32 -58 9 -9 20 -3 47 25 19 20 51 48 70 63 30 23 39 25 60 16 19 -9 24 -8 29 5 14 35 -51 44 -99 14z"/> <path d="M1330 630 c-11 -7 -3 -21 45 -72 94 -99 124 -123 138 -109 17 17 -162 194 -183 181z"/> <path d="M1646 578 c7 -75 -6 -115 -41 -128 -29 -11 -34 -40 -7 -40 54 0 84 58 80 156 -2 56 -6 69 -20 72 -15 3 -17 -4 -12 -60z"/> <path d="M984 468 c-34 -67 -74 -179 -68 -190 13 -21 33 -4 44 40 7 26 28 77 45 114 27 55 30 69 19 78 -10 9 -19 0 -40 -42z"/> </g> </svg> 